<svg width="110" height="110" viewBox="0 0 110 110" fill="none" xmlns="http://www.w3.org/2000/svg">
<circle cx="55" cy="55" r="48" fill="#E5E5E5" stroke="#3A3A3A" stroke-width="14"/>
<g filter="url(#filter0_i_458_3028)">
<path d="M9 55C9 48.9592 10.1898 42.9775 12.5015 37.3966C14.8133 31.8156 18.2016 26.7446 22.4731 22.4731C26.7446 18.2016 31.8156 14.8133 37.3966 12.5015C42.9775 10.1898 48.9592 9 55 9L55 55L9 55Z" fill="#365EDC"/>
</g>
<circle cx="55" cy="55" r="34" fill="#5273E0"/>
<circle cx="55" cy="55" r="32.5" stroke="white" stroke-opacity="0.2" stroke-width="3"/>
<g opacity="0.9">
<path d="M55.5833 42.5833C55.1691 42.5833 54.8333 42.919 54.8333 43.3333C54.8333 43.7475 55.1691 44.0833 55.5833 44.0833V42.5833ZM46.4167 60.2499C46.4167 59.8357 46.0809 59.4999 45.6667 59.4999C45.2525 59.4999 44.9167 59.8357 44.9167 60.2499H46.4167ZM63.9519 45.2443L63.2836 45.5848L63.2836 45.5848L63.9519 45.2443ZM62.4223 43.7147L62.7628 43.0465L62.7628 43.0465L62.4223 43.7147ZM47.5777 66.2851L47.2372 66.9534L47.2372 66.9534L47.5777 66.2851ZM46.0481 64.7556L46.7164 64.4151L46.7164 64.4151L46.0481 64.7556ZM62.4223 66.2851L62.7628 66.9534L62.7628 66.9534L62.4223 66.2851ZM63.9519 64.7556L63.2836 64.4151L63.2836 64.4151L63.9519 64.7556ZM59.6667 56.9166C60.0809 56.9166 60.4167 56.5808 60.4167 56.1666C60.4167 55.7524 60.0809 55.4166 59.6667 55.4166V56.9166ZM54.4167 55.4166C54.0025 55.4166 53.6667 55.7524 53.6667 56.1666C53.6667 56.5808 54.0025 56.9166 54.4167 56.9166V55.4166ZM59.6667 52.2499C60.0809 52.2499 60.4167 51.9141 60.4167 51.4999C60.4167 51.0857 60.0809 50.7499 59.6667 50.7499V52.2499ZM55.5833 50.7499C55.1691 50.7499 54.8333 51.0857 54.8333 51.4999C54.8333 51.9141 55.1691 52.2499 55.5833 52.2499V50.7499ZM59.6667 61.5833C60.0809 61.5833 60.4167 61.2475 60.4167 60.8333C60.4167 60.419 60.0809 60.0833 59.6667 60.0833V61.5833ZM50.3333 60.0833C49.9191 60.0833 49.5833 60.419 49.5833 60.8333C49.5833 61.2475 49.9191 61.5833 50.3333 61.5833V60.0833ZM47.25 52.6666C47.25 53.0808 47.5858 53.4166 48 53.4166C48.4142 53.4166 48.75 53.0808 48.75 52.6666H47.25ZM45.25 47.9999C45.25 47.5857 44.9142 47.2499 44.5 47.2499C44.0858 47.2499 43.75 47.5857 43.75 47.9999H45.25ZM58.7333 65.9166H51.2667V67.4166H58.7333V65.9166ZM63.5833 48.9333V61.0666H65.0833V48.9333H63.5833ZM55.5833 44.0833H58.7333V42.5833H55.5833V44.0833ZM46.4167 61.0666V60.2499H44.9167V61.0666H46.4167ZM65.0833 48.9333C65.0833 47.9655 65.0839 47.1946 65.0332 46.5734C64.9817 45.9434 64.8737 45.4015 64.6201 44.9038L63.2836 45.5848C63.4115 45.8358 63.4942 46.1583 63.5381 46.6955C63.5828 47.2415 63.5833 47.9408 63.5833 48.9333H65.0833ZM58.7333 44.0833C59.7258 44.0833 60.425 44.0838 60.9711 44.1284C61.5083 44.1723 61.8308 44.2551 62.0818 44.383L62.7628 43.0465C62.2651 42.7929 61.7232 42.6849 61.0932 42.6334C60.4719 42.5827 59.7011 42.5833 58.7333 42.5833V44.0833ZM64.6201 44.9038C64.2127 44.1041 63.5625 43.4539 62.7628 43.0465L62.0818 44.383C62.5993 44.6466 63.02 45.0673 63.2836 45.5848L64.6201 44.9038ZM51.2667 65.9166C50.2742 65.9166 49.575 65.916 49.0289 65.8714C48.4917 65.8275 48.1692 65.7447 47.9182 65.6169L47.2372 66.9534C47.7349 67.207 48.2768 67.3149 48.9068 67.3664C49.5281 67.4172 50.299 67.4166 51.2667 67.4166V65.9166ZM44.9167 61.0666C44.9167 62.0343 44.9161 62.8052 44.9668 63.4265C45.0183 64.0565 45.1263 64.5983 45.3799 65.096L46.7164 64.4151C46.5885 64.1641 46.5058 63.8416 46.4619 63.3043C46.4173 62.7583 46.4167 62.0591 46.4167 61.0666H44.9167ZM47.9182 65.6169C47.4007 65.3532 46.9801 64.9325 46.7164 64.4151L45.3799 65.096C45.7874 65.8957 46.4375 66.5459 47.2372 66.9534L47.9182 65.6169ZM58.7333 67.4166C59.7011 67.4166 60.4719 67.4172 61.0932 67.3664C61.7232 67.3149 62.2651 67.207 62.7628 66.9534L62.0818 65.6169C61.8308 65.7447 61.5083 65.8275 60.9711 65.8714C60.425 65.916 59.7258 65.9166 58.7333 65.9166V67.4166ZM63.5833 61.0666C63.5833 62.0591 63.5828 62.7583 63.5381 63.3043C63.4942 63.8416 63.4115 64.1641 63.2836 64.4151L64.6201 65.096C64.8737 64.5983 64.9817 64.0565 65.0332 63.4265C65.0839 62.8052 65.0833 62.0343 65.0833 61.0666H63.5833ZM62.7628 66.9534C63.5625 66.5459 64.2127 65.8957 64.6201 65.096L63.2836 64.4151C63.02 64.9325 62.5993 65.3532 62.0818 65.6169L62.7628 66.9534ZM59.6667 55.4166H54.4167V56.9166H59.6667V55.4166ZM59.6667 50.7499H55.5833V52.2499H59.6667V50.7499ZM59.6667 60.0833H50.3333V61.5833H59.6667V60.0833ZM48.75 52.6666V46.2499H47.25V52.6666H48.75ZM50.75 46.2499V52.6666H52.25V46.2499H50.75ZM45.25 52.6666V47.9999H43.75V52.6666H45.25ZM48 55.4166C46.4812 55.4166 45.25 54.1854 45.25 52.6666H43.75C43.75 55.0138 45.6528 56.9166 48 56.9166V55.4166ZM50.75 52.6666C50.75 54.1854 49.5188 55.4166 48 55.4166V56.9166C50.3472 56.9166 52.25 55.0138 52.25 52.6666H50.75ZM49.75 45.2499C50.3023 45.2499 50.75 45.6976 50.75 46.2499H52.25C52.25 44.8692 51.1307 43.7499 49.75 43.7499V45.2499ZM48.75 46.2499C48.75 45.6976 49.1977 45.2499 49.75 45.2499V43.7499C48.3693 43.7499 47.25 44.8692 47.25 46.2499H48.75Z" fill="white"/>
</g>
<defs>
<filter id="filter0_i_458_3028" x="9" y="9" width="46" height="50" filterUnits="userSpaceOnUse" color-interpolation-filters="sRGB">
<feFlood flood-opacity="0" result="BackgroundImageFix"/>
<feBlend mode="normal" in="SourceGraphic" in2="BackgroundImageFix" result="shape"/>
<feColorMatrix in="SourceAlpha" type="matrix" values="0 0 0 0 0 0 0 0 0 0 0 0 0 0 0 0 0 0 127 0" result="hardAlpha"/>
<feOffset dy="4"/>
<feGaussianBlur stdDeviation="2"/>
<feComposite in2="hardAlpha" operator="arithmetic" k2="-1" k3="1"/>
<feColorMatrix type="matrix" values="0 0 0 0 0 0 0 0 0 0 0 0 0 0 0 0 0 0 0.03 0"/>
<feBlend mode="normal" in2="shape" result="effect1_innerShadow_458_3028"/>
</filter>
</defs>
</svg>
