<svg width="110" height="110" viewBox="0 0 110 110" fill="none" xmlns="http://www.w3.org/2000/svg">
<circle cx="55" cy="55" r="48" fill="#E5E5E5" stroke="#3A3A3A" stroke-width="14"/>
<g filter="url(#filter0_i_458_2996)">
<path d="M9 55C9 45.9021 11.6979 37.0084 16.7524 29.4438C21.8069 21.8791 28.9912 15.9832 37.3966 12.5015C45.802 9.01991 55.051 8.10895 63.9742 9.88387C72.8973 11.6588 81.0937 16.0399 87.5269 22.4731C93.9601 28.9063 98.3412 37.1027 100.116 46.0258C101.891 54.949 100.98 64.198 97.4985 72.6034C94.0168 81.0088 88.1209 88.1931 80.5562 93.2476C72.9916 98.3021 64.0979 101 55 101L55 55L9 55Z" fill="#365EDC"/>
</g>
<circle cx="55" cy="55" r="34" fill="#5273E0"/>
<circle cx="55" cy="55" r="32.5" stroke="white" stroke-opacity="0.2" stroke-width="3"/>
<g opacity="0.9">
<path d="M56.7846 50.7438C56.1167 51.2199 55.2995 51.4999 54.4168 51.4999C52.1617 51.4999 50.3335 49.6717 50.3335 47.4166C50.3335 45.1614 52.1617 43.3333 54.4168 43.3333C55.8786 43.3333 57.1611 44.1014 57.8824 45.2561M48.0002 64.4349H51.0455C51.4426 64.4349 51.8372 64.4822 52.2221 64.5767L55.4399 65.3586C56.1381 65.5287 56.8654 65.5452 57.5709 65.4082L61.1286 64.7161C62.0685 64.533 62.933 64.0829 63.6106 63.4238L66.1277 60.9752C66.8465 60.2772 66.8465 59.1444 66.1277 58.4452C65.4805 57.8156 64.4557 57.7447 63.7235 58.2786L60.7899 60.4189C60.3697 60.726 59.8585 60.8914 59.3328 60.8914H56.4999L58.3031 60.8913C59.3194 60.8913 60.1427 60.0905 60.1427 59.1018V58.7439C60.1427 57.923 59.5683 57.2072 58.7499 57.0088L55.9669 56.332C55.5139 56.2221 55.0501 56.1666 54.5838 56.1666C53.4582 56.1666 51.4207 57.0985 51.4207 57.0985L48.0002 58.5289M64.3335 48.5833C64.3335 50.8384 62.5053 52.6666 60.2502 52.6666C57.995 52.6666 56.1668 50.8384 56.1668 48.5833C56.1668 46.3281 57.995 44.4999 60.2502 44.4999C62.5053 44.4999 64.3335 46.3281 64.3335 48.5833ZM43.3335 58.0333L43.3335 64.7999C43.3335 65.4533 43.3335 65.78 43.4607 66.0296C43.5725 66.2491 43.751 66.4276 43.9705 66.5394C44.2201 66.6666 44.5468 66.6666 45.2002 66.6666H46.1335C46.7869 66.6666 47.1136 66.6666 47.3632 66.5394C47.5827 66.4276 47.7612 66.2491 47.873 66.0296C48.0002 65.78 48.0002 65.4533 48.0002 64.7999V58.0333C48.0002 57.3799 48.0002 57.0532 47.873 56.8036C47.7612 56.5841 47.5827 56.4056 47.3632 56.2937C47.1136 56.1666 46.7869 56.1666 46.1335 56.1666L45.2002 56.1666C44.5468 56.1666 44.2201 56.1666 43.9705 56.2937C43.751 56.4056 43.5725 56.5841 43.4607 56.8036C43.3335 57.0532 43.3335 57.3799 43.3335 58.0333Z" stroke="white" stroke-width="1.5" stroke-linecap="round" stroke-linejoin="round"/>
</g>
<defs>
<filter id="filter0_i_458_2996" x="9" y="9" width="92" height="96" filterUnits="userSpaceOnUse" color-interpolation-filters="sRGB">
<feFlood flood-opacity="0" result="BackgroundImageFix"/>
<feBlend mode="normal" in="SourceGraphic" in2="BackgroundImageFix" result="shape"/>
<feColorMatrix in="SourceAlpha" type="matrix" values="0 0 0 0 0 0 0 0 0 0 0 0 0 0 0 0 0 0 127 0" result="hardAlpha"/>
<feOffset dy="4"/>
<feGaussianBlur stdDeviation="2"/>
<feComposite in2="hardAlpha" operator="arithmetic" k2="-1" k3="1"/>
<feColorMatrix type="matrix" values="0 0 0 0 0 0 0 0 0 0 0 0 0 0 0 0 0 0 0.03 0"/>
<feBlend mode="normal" in2="shape" result="effect1_innerShadow_458_2996"/>
</filter>
</defs>
</svg>
