<svg width="24" height="24" viewBox="0 0 24 24" fill="none" xmlns="http://www.w3.org/2000/svg">
<circle cx="12" cy="12" r="12" fill="#353E48"/>
<path opacity="0.5" d="M11.6793 13.906C11.6793 13.542 11.74 13.2247 11.8613 12.954C11.9826 12.6833 12.132 12.4407 12.3093 12.226C12.496 12.0113 12.6966 11.8153 12.9113 11.638C13.126 11.4513 13.3266 11.2693 13.5133 11.092C13.7 10.9053 13.8493 10.7093 13.9613 10.504C14.0826 10.2987 14.1433 10.0607 14.1433 9.79C14.1433 9.342 13.966 8.978 13.6113 8.698C13.2566 8.418 12.7666 8.278 12.1413 8.278C11.5813 8.278 11.096 8.37133 10.6853 8.558C10.2746 8.74467 9.92464 9.02 9.6353 9.384L8.6133 8.656C9.0053 8.16133 9.50464 7.77867 10.1113 7.508C10.718 7.228 11.4273 7.088 12.2393 7.088C12.9113 7.088 13.4946 7.19067 13.9893 7.396C14.484 7.592 14.8666 7.87667 15.1373 8.25C15.4173 8.614 15.5573 9.05733 15.5573 9.58C15.5573 9.972 15.4966 10.308 15.3753 10.588C15.254 10.868 15.1 11.1153 14.9133 11.33C14.7266 11.5447 14.526 11.7453 14.3113 11.932C14.106 12.1187 13.91 12.3053 13.7233 12.492C13.5366 12.6787 13.3826 12.884 13.2613 13.108C13.14 13.332 13.0793 13.598 13.0793 13.906H11.6793ZM12.3933 17.084C12.132 17.084 11.9126 16.9953 11.7353 16.818C11.5673 16.6407 11.4833 16.4307 11.4833 16.188C11.4833 15.9267 11.5673 15.712 11.7353 15.544C11.9126 15.376 12.132 15.292 12.3933 15.292C12.6546 15.292 12.8693 15.376 13.0373 15.544C13.2053 15.712 13.2893 15.9267 13.2893 16.188C13.2893 16.4307 13.2053 16.6407 13.0373 16.818C12.8693 16.9953 12.6546 17.084 12.3933 17.084Z" fill="white"/>
</svg>
