<svg width="151" height="151" viewBox="0 0 151 151" fill="none" xmlns="http://www.w3.org/2000/svg">
<g opacity="0.5">
<path d="M30.9373 51.8472C29.9419 51.8472 28.9563 52.0432 28.0367 52.4241C27.1171 52.805 26.2816 53.3633 25.5778 54.0672C24.8739 54.771 24.3156 55.6065 23.9347 56.5261C23.5538 57.4457 23.3578 58.4313 23.3578 59.4267C23.3578 60.422 23.5538 61.4076 23.9347 62.3272C24.3156 63.2468 24.8739 64.0823 25.5778 64.7862C26.2816 65.49 27.1171 66.0483 28.0367 66.4292C28.9563 66.8101 29.9419 67.0062 30.9373 67.0062H83.2564V51.8472H30.9373ZM80.897 64.6468H30.9373C29.5528 64.6468 28.2251 64.0968 27.2461 63.1178C26.2671 62.1389 25.7172 60.8111 25.7172 59.4267C25.7172 58.0422 26.2671 56.7144 27.2461 55.7355C28.2251 54.7565 29.5528 54.2065 30.9373 54.2065H80.897V64.6468Z" fill="#365EDC"/>
<path d="M107.428 42.7578H105.069V76.0958H107.428V42.7578Z" fill="#365EDC"/>
<path d="M83.2564 42.7578H80.8971V76.0958H83.2564V42.7578Z" fill="#365EDC"/>
<path d="M107.104 74.9102H80.2659C78.3715 74.9102 76.5546 75.6627 75.2151 77.0023C73.8755 78.3419 73.1229 80.1587 73.1229 82.0532C73.1229 83.9476 73.8755 85.7645 75.2151 87.104C76.5546 88.4436 78.3715 89.1962 80.2659 89.1962H107.104C108.998 89.1962 110.815 88.4436 112.155 87.104C113.494 85.7645 114.247 83.9476 114.247 82.0532C114.247 80.1587 113.494 78.3419 112.155 77.0023C110.815 75.6627 108.998 74.9102 107.104 74.9102ZM107.104 86.8368H80.2659C78.9972 86.8368 77.7805 86.3328 76.8834 85.4357C75.9863 84.5386 75.4823 83.3219 75.4823 82.0532C75.4823 80.7845 75.9863 79.5677 76.8834 78.6706C77.7805 77.7735 78.9972 77.2695 80.2659 77.2695H107.104C108.166 77.2718 109.197 77.6271 110.035 78.2795C110.874 78.9319 111.471 79.8444 111.734 80.8735H82.0767V83.2329H111.728C111.467 84.2621 110.87 85.1752 110.033 85.8286C109.196 86.4821 108.166 86.8388 107.104 86.8427V86.8368Z" fill="#365EDC"/>
<path d="M107.104 29.6515H80.2659C78.3715 29.6515 76.5546 30.4041 75.2151 31.7436C73.8755 33.0832 73.1229 34.9001 73.1229 36.7945C73.1229 38.6889 73.8755 40.5058 75.2151 41.8454C76.5546 43.1849 78.3715 43.9375 80.2659 43.9375H107.104C108.998 43.9375 110.815 43.1849 112.155 41.8454C113.494 40.5058 114.247 38.6889 114.247 36.7945C114.247 34.9001 113.494 33.0832 112.155 31.7436C110.815 30.4041 108.998 29.6515 107.104 29.6515V29.6515ZM107.104 41.5781H80.2659C78.9972 41.5781 77.7805 41.0741 76.8834 40.177C75.9863 39.2799 75.4823 38.0632 75.4823 36.7945C75.4823 35.5258 75.9863 34.3091 76.8834 33.412C77.7805 32.5149 78.9972 32.0109 80.2659 32.0109H107.104C108.166 32.0131 109.197 32.3684 110.035 33.0208C110.874 33.6732 111.471 34.5857 111.734 35.6148H82.0767V37.9742H111.728C111.466 39.0023 110.869 39.9141 110.032 40.5664C109.195 41.2187 108.165 41.5746 107.104 41.5781V41.5781Z" fill="#365EDC"/>
<path d="M125.956 92.0484L113.577 104.619L115.259 106.274L127.637 93.7039L125.956 92.0484Z" fill="#365EDC"/>
<path d="M63.2356 92.1445L61.5798 93.8253L74.148 106.206L75.8038 104.525L63.2356 92.1445Z" fill="#365EDC"/>
<path d="M95.8319 96.811H93.4725V105.458H95.8319V96.811Z" fill="#365EDC"/>
<path d="M67.5135 109.186V118.989H26.3896V121.348H121.036V109.186H67.5135ZM118.671 118.989H69.8729V111.545H118.677L118.671 118.989Z" fill="#365EDC"/>
</g>
</svg>
