<svg width="151" height="151" viewBox="0 0 151 151" fill="none" xmlns="http://www.w3.org/2000/svg">
<g opacity="0.5">
<path d="M106.564 70.22V97.6032C107.326 97.0381 108.119 96.5959 108.932 96.2829V70.22H106.564Z" fill="#365EDC"/>
<path d="M42.0676 70.22V96.7373C42.8295 96.1901 43.6227 95.7619 44.4361 95.4588V70.22H42.0676Z" fill="#365EDC"/>
<path d="M75.5 58.0996C56.4421 58.0996 42.0677 63.4082 42.0677 70.4509H44.427C44.427 65.7322 57.1913 60.459 75.5 60.459C93.8088 60.459 106.573 65.7263 106.573 70.4509H108.932C108.932 63.4082 94.5579 58.0996 75.5 58.0996Z" fill="#365EDC"/>
<path d="M75.5 34.6946L5.21422 65.16L42.805 80.3898L43.6897 78.2015L11.3132 65.0833L75.5 37.2663L139.681 65.0833L107.31 78.2015L108.195 80.3898L145.786 65.16L75.5 34.6946Z" fill="#365EDC"/>
<path fill-rule="evenodd" clip-rule="evenodd" d="M104.581 99.4122C105.954 98.2087 106.322 97.232 106.322 96.5426C106.322 95.8532 105.954 94.8765 104.581 93.673C103.213 92.4739 101.083 91.2758 98.2278 90.2174C92.5371 88.108 84.5021 86.7512 75.5 86.7512C66.4979 86.7512 58.4629 88.108 52.7722 90.2174C49.9169 91.2758 47.7873 92.4739 46.419 93.673C45.0458 94.8765 44.6777 95.8532 44.6777 96.5426C44.6777 97.232 45.0458 98.2087 46.419 99.4122C47.7873 100.611 49.9169 101.809 52.7722 102.868C58.4629 104.977 66.4979 106.334 75.5 106.334C84.5021 106.334 92.5371 104.977 98.2278 102.868C101.083 101.809 103.213 100.611 104.581 99.4122ZM75.5 108.929C93.956 108.929 108.918 103.384 108.918 96.5426C108.918 89.7016 93.956 84.1559 75.5 84.1559C57.044 84.1559 42.0824 89.7016 42.0824 96.5426C42.0824 103.384 57.044 108.929 75.5 108.929Z" fill="#365EDC"/>
<path d="M29.2681 90.246C29.2681 90.1752 29.2681 90.0986 29.2681 90.0278C29.2647 89.2435 29.0153 88.4801 28.555 87.8451C28.0946 87.2102 27.4466 86.7357 26.7022 86.4887V57.6335H24.3429V86.4592C23.5985 86.7062 22.9505 87.1807 22.4901 87.8156C22.0298 88.4506 21.7804 89.214 21.777 89.9983C21.777 89.9983 21.777 90.0455 21.777 90.0691C21.1039 90.6025 20.5602 91.2812 20.1863 92.0544C19.8125 92.8276 19.6183 93.6753 19.6182 94.5342V101.713H21.9776V94.546C21.9772 93.7945 22.2308 93.0649 22.6972 92.4756C23.1366 92.9791 23.7028 93.3559 24.337 93.5668V97.2298H26.6963V93.5668C27.2803 93.3717 27.8071 93.0354 28.2299 92.5877C28.6563 93.1525 28.8918 93.8384 28.9024 94.546V101.724H31.2617V94.546C31.2579 93.7281 31.0778 92.9206 30.7337 92.1786C30.3897 91.4366 29.8898 90.7774 29.2681 90.246V90.246Z" fill="#365EDC"/>
</g>
</svg>
