<svg width="151" height="151" viewBox="0 0 151 151" fill="none" xmlns="http://www.w3.org/2000/svg">
<g opacity="0.5">
<path d="M38.6879 32.6949V118.305H52.6023V32.6949H38.6879ZM41.0472 115.946V35.0543H50.2429V115.946H41.0472Z" fill="#365EDC"/>
<path d="M97.7076 32.6949V118.305H111.622V32.6949H97.7076ZM100.067 115.946V35.0543H109.263V115.946H100.067Z" fill="#365EDC"/>
<path d="M58.7779 65.6554H50.9507V68.0148H58.7779V65.6554Z" fill="#365EDC"/>
<path d="M77.2105 65.6554H63.9627V68.0148H77.2105V65.6554Z" fill="#365EDC"/>
<path d="M87.6803 65.6554H82.3953V68.0148H87.6803V65.6554Z" fill="#365EDC"/>
<path d="M98.8873 65.6554H92.865V68.0148H98.8873V65.6554Z" fill="#365EDC"/>
<path d="M67.8969 83.8226H50.9507V86.182H67.8969V83.8226Z" fill="#365EDC"/>
<path d="M80.1362 83.8226H73.0816V86.182H80.1362V83.8226Z" fill="#365EDC"/>
<path d="M98.8873 83.8226H85.3209V86.182H98.8873V83.8226Z" fill="#365EDC"/>
<path d="M58.7779 101.99H50.9507V104.349H58.7779V101.99Z" fill="#365EDC"/>
<path d="M69.6665 101.99H63.9627V104.349H69.6665V101.99Z" fill="#365EDC"/>
<path d="M87.6803 101.99H74.8512V104.349H87.6803V101.99Z" fill="#365EDC"/>
<path d="M98.8873 101.99H92.865V104.349H98.8873V101.99Z" fill="#365EDC"/>
<path d="M59.9046 115.946H32.7599V118.305H59.9046V115.946Z" fill="#365EDC"/>
<path d="M118.24 115.946H91.0955V118.305H118.24V115.946Z" fill="#365EDC"/>
<path d="M61.7685 60.3291H60.9722C59.765 60.3307 58.6076 60.8109 57.754 61.6645C56.9004 62.5182 56.4201 63.6755 56.4186 64.8827V68.7934C56.4217 70.0001 56.9024 71.1565 57.7557 72.0098C58.609 72.8631 59.7654 73.3438 60.9722 73.347H61.7685C62.9757 73.3454 64.133 72.8651 64.9866 72.0115C65.8402 71.1579 66.3205 70.0006 66.3221 68.7934V64.8827C66.3221 63.675 65.8423 62.5168 64.9883 61.6628C64.1344 60.8089 62.9762 60.3291 61.7685 60.3291V60.3291ZM63.9627 68.7934C63.9611 69.3748 63.7294 69.932 63.3183 70.3432C62.9071 70.7543 62.3499 70.986 61.7685 70.9876H60.9722C60.3907 70.986 59.8335 70.7543 59.4223 70.3432C59.0112 69.932 58.7795 69.3748 58.778 68.7934V64.8827C58.7795 64.3012 59.0112 63.744 59.4223 63.3329C59.8335 62.9217 60.3907 62.69 60.9722 62.6885H61.7685C62.3499 62.69 62.9071 62.9217 63.3183 63.3329C63.7294 63.744 63.9611 64.3012 63.9627 64.8827V68.7934Z" fill="#365EDC"/>
<path d="M80.2188 60.3291H79.4225C78.8232 60.3276 78.2295 60.4442 77.6754 60.6722C77.1212 60.9003 76.6174 61.2354 76.1929 61.6583C75.7683 62.0812 75.4313 62.5837 75.2011 63.137C74.9709 63.6902 74.852 64.2835 74.8512 64.8827V68.7934C74.8543 70.0001 75.335 71.1565 76.1883 72.0098C77.0416 72.8631 78.198 73.3439 79.4048 73.347H80.2188C81.426 73.3454 82.5833 72.8652 83.4369 72.0115C84.2905 71.1579 84.7708 70.0006 84.7724 68.7934V64.8827C84.7724 63.675 84.2926 62.5168 83.4386 61.6628C82.5847 60.8089 81.4264 60.3291 80.2188 60.3291ZM82.413 68.7934C82.4114 69.3748 82.1797 69.932 81.7686 70.3432C81.3574 70.7544 80.8002 70.986 80.2188 70.9876H79.4225C78.841 70.986 78.2838 70.7544 77.8726 70.3432C77.4615 69.932 77.2298 69.3748 77.2282 68.7934V64.8827C77.2298 64.3012 77.4615 63.744 77.8726 63.3329C78.2838 62.9217 78.841 62.69 79.4225 62.6885H80.2188C80.8002 62.69 81.3574 62.9217 81.7686 63.3329C82.1797 63.744 82.4114 64.3012 82.413 64.8827V68.7934Z" fill="#365EDC"/>
<path d="M90.6708 60.3291H89.8745C88.6673 60.3307 87.51 60.8109 86.6564 61.6645C85.8027 62.5182 85.3225 63.6755 85.3209 64.8827V68.7934C85.324 70.0001 85.8048 71.1565 86.6581 72.0098C87.5114 72.8631 88.6678 73.3438 89.8745 73.347H90.6708C91.878 73.3454 93.0353 72.8651 93.889 72.0115C94.7426 71.1579 95.2228 70.0006 95.2244 68.7934V64.8827C95.2244 63.675 94.7446 62.5168 93.8907 61.6628C93.0367 60.8089 91.8785 60.3291 90.6708 60.3291V60.3291ZM92.865 68.7934C92.8635 69.3748 92.6318 69.932 92.2206 70.3432C91.8095 70.7543 91.2523 70.986 90.6708 70.9876H89.8745C89.293 70.986 88.7358 70.7543 88.3247 70.3432C87.9135 69.932 87.6818 69.3748 87.6803 68.7934V64.8827C87.6818 64.3012 87.9135 63.744 88.3247 63.3329C88.7358 62.9217 89.293 62.69 89.8745 62.6885H90.6708C91.2523 62.69 91.8095 62.9217 92.2206 63.3329C92.6318 63.744 92.8635 64.3012 92.865 64.8827V68.7934Z" fill="#365EDC"/>
<path d="M70.8874 78.4963H70.0911C68.8839 78.4979 67.7266 78.9781 66.873 79.8318C66.0194 80.6854 65.5391 81.8427 65.5376 83.0499V86.9606C65.5407 88.1673 66.0214 89.3237 66.8747 90.177C67.728 91.0303 68.8844 91.5111 70.0911 91.5142H70.8874C72.0946 91.5126 73.252 91.0324 74.1056 90.1788C74.9592 89.3251 75.4395 88.1678 75.441 86.9606V83.0499C75.441 82.4519 75.3232 81.8598 75.0944 81.3073C74.8656 80.7549 74.5301 80.2529 74.1073 79.8301C73.6845 79.4072 73.1825 79.0718 72.63 78.843C72.0776 78.6141 71.4854 78.4963 70.8874 78.4963V78.4963ZM73.0817 86.9606C73.0801 87.5421 72.8484 88.0993 72.4373 88.5104C72.0261 88.9216 71.4689 89.1533 70.8874 89.1548H70.0911C69.5097 89.1533 68.9525 88.9216 68.5413 88.5104C68.1302 88.0993 67.8985 87.5421 67.8969 86.9606V83.0499C67.8985 82.4685 68.1302 81.9113 68.5413 81.5001C68.9525 81.0889 69.5097 80.8573 70.0911 80.8557H70.8874C71.4689 80.8573 72.0261 81.0889 72.4373 81.5001C72.8484 81.9113 73.0801 82.4685 73.0817 83.0499V86.9606Z" fill="#365EDC"/>
<path d="M83.1267 78.4963H82.3304C81.1232 78.4979 79.9659 78.9781 79.1122 79.8318C78.2586 80.6854 77.7784 81.8427 77.7768 83.0499V86.9606C77.7799 88.1673 78.2607 89.3237 79.114 90.177C79.9673 91.0303 81.1237 91.5111 82.3304 91.5142H83.1267C84.3339 91.5126 85.4912 91.0324 86.3448 90.1788C87.1985 89.3251 87.6787 88.1678 87.6803 86.9606V83.0499C87.6803 81.8422 87.2005 80.684 86.3466 79.8301C85.4926 78.9761 84.3344 78.4963 83.1267 78.4963V78.4963ZM85.3209 86.9606C85.3194 87.5421 85.0877 88.0993 84.6765 88.5104C84.2654 88.9216 83.7082 89.1533 83.1267 89.1548H82.3304C81.7489 89.1533 81.1917 88.9216 80.7806 88.5104C80.3694 88.0993 80.1377 87.5421 80.1362 86.9606V83.0499C80.1377 82.4685 80.3694 81.9113 80.7806 81.5001C81.1917 81.0889 81.7489 80.8573 82.3304 80.8557H83.1267C83.7082 80.8573 84.2654 81.0889 84.6765 81.5001C85.0877 81.9113 85.3194 82.4685 85.3209 83.0499V86.9606Z" fill="#365EDC"/>
<path d="M59.9576 47.4824H50.9507V49.8418H59.9576V47.4824Z" fill="#365EDC"/>
<path d="M80.1362 47.4824H65.1424V49.8418H80.1362V47.4824Z" fill="#365EDC"/>
<path d="M98.8873 47.4824H85.3209V49.8418H98.8873V47.4824Z" fill="#365EDC"/>
<path d="M62.9481 42.1501H62.1518C60.9441 42.1533 59.7868 42.6348 58.9333 43.4894C58.0799 44.344 57.5998 45.5019 57.5983 46.7096V50.6144C57.5998 51.8216 58.0801 52.9789 58.9337 53.8326C59.7873 54.6862 60.9446 55.1664 62.1518 55.168H62.9481C64.1558 55.168 65.314 54.6882 66.168 53.8343C67.022 52.9803 67.5017 51.8221 67.5017 50.6144V46.7096C67.5017 45.5014 67.0222 44.3426 66.1684 43.4877C65.3146 42.6328 64.1564 42.1517 62.9481 42.1501V42.1501ZM65.1424 50.6144C65.1424 51.1963 64.9112 51.7545 64.4997 52.166C64.0882 52.5774 63.5301 52.8086 62.9481 52.8086H62.1518C61.5699 52.8086 61.0118 52.5774 60.6003 52.166C60.1888 51.7545 59.9576 51.1963 59.9576 50.6144V46.7096C59.9576 46.1272 60.1886 45.5684 60.5999 45.156C61.0113 44.7436 61.5694 44.5111 62.1518 44.5095H62.9481C63.5306 44.5111 64.0887 44.7436 64.5 45.156C64.9114 45.5684 65.1424 46.1272 65.1424 46.7096V50.6144Z" fill="#365EDC"/>
<path d="M83.1267 42.1501H82.3304C81.1227 42.1533 79.9653 42.6348 79.1119 43.4894C78.2584 44.344 77.7784 45.5019 77.7768 46.7096V50.6144C77.7784 51.8216 78.2586 52.9789 79.1122 53.8326C79.9659 54.6862 81.1232 55.1664 82.3304 55.168H83.1267C84.3344 55.168 85.4926 54.6882 86.3466 53.8343C87.2005 52.9803 87.6803 51.8221 87.6803 50.6144V46.7096C87.6803 45.5014 87.2007 44.3426 86.3469 43.4877C85.4931 42.6328 84.3349 42.1517 83.1267 42.1501V42.1501ZM85.3209 50.6144C85.3209 51.1963 85.0897 51.7545 84.6782 52.166C84.2667 52.5774 83.7086 52.8086 83.1267 52.8086H82.3304C81.7485 52.8086 81.1904 52.5774 80.7789 52.166C80.3674 51.7545 80.1362 51.1963 80.1362 50.6144V46.7096C80.1362 46.1272 80.3672 45.5684 80.7785 45.156C81.1898 44.7436 81.7479 44.5111 82.3304 44.5095H83.1267C83.7092 44.5111 84.2673 44.7436 84.6786 45.156C85.0899 45.5684 85.3209 46.1272 85.3209 46.7096V50.6144Z" fill="#365EDC"/>
<path d="M61.7685 96.6636H60.9722C59.765 96.6651 58.6076 97.1454 57.754 97.999C56.9004 98.8526 56.4201 100.01 56.4186 101.217V105.128C56.4217 106.335 56.9024 107.491 57.7557 108.344C58.609 109.198 59.7654 109.678 60.9722 109.681H61.7685C62.9757 109.68 64.133 109.2 64.9866 108.346C65.8402 107.492 66.3205 106.335 66.3221 105.128V101.217C66.3221 100.009 65.8423 98.8512 64.9883 97.9973C64.1344 97.1433 62.9762 96.6636 61.7685 96.6636V96.6636ZM63.9627 105.128C63.9611 105.709 63.7294 106.267 63.3183 106.678C62.9071 107.089 62.3499 107.32 61.7685 107.322H60.9722C60.3907 107.32 59.8335 107.089 59.4223 106.678C59.0112 106.267 58.7795 105.709 58.778 105.128V101.217C58.7795 100.636 59.0112 100.078 59.4223 99.6673C59.8335 99.2562 60.3907 99.0245 60.9722 99.023H61.7685C62.3499 99.0245 62.9071 99.2562 63.3183 99.6673C63.7294 100.078 63.9611 100.636 63.9627 101.217V105.128Z" fill="#365EDC"/>
<path d="M72.657 96.6636H71.8607C70.6535 96.6651 69.4962 97.1454 68.6425 97.999C67.7889 98.8526 67.3086 100.01 67.3071 101.217V105.128C67.3102 106.335 67.7909 107.491 68.6442 108.344C69.4975 109.198 70.6539 109.678 71.8607 109.681H72.657C73.8642 109.68 75.0215 109.2 75.8751 108.346C76.7287 107.492 77.209 106.335 77.2106 105.128V101.217C77.2106 100.009 76.7308 98.8512 75.8768 97.9973C75.0229 97.1433 73.8647 96.6636 72.657 96.6636V96.6636ZM74.8512 105.128C74.8496 105.709 74.618 106.267 74.2068 106.678C73.7956 107.089 73.2384 107.32 72.657 107.322H71.8607C71.2792 107.32 70.722 107.089 70.3108 106.678C69.8997 106.267 69.668 105.709 69.6665 105.128V101.217C69.668 100.636 69.8997 100.078 70.3108 99.6673C70.722 99.2562 71.2792 99.0245 71.8607 99.023H72.657C73.2384 99.0245 73.7956 99.2562 74.2068 99.6673C74.618 100.078 74.8496 100.636 74.8512 101.217V105.128Z" fill="#365EDC"/>
<path d="M90.6708 96.6636H89.8745C88.6673 96.6651 87.51 97.1454 86.6564 97.999C85.8027 98.8526 85.3225 100.01 85.3209 101.217V105.128C85.324 106.335 85.8048 107.491 86.6581 108.344C87.5114 109.198 88.6678 109.678 89.8745 109.681H90.6708C91.878 109.68 93.0353 109.2 93.889 108.346C94.7426 107.492 95.2228 106.335 95.2244 105.128V101.217C95.2244 100.009 94.7446 98.8512 93.8907 97.9973C93.0367 97.1433 91.8785 96.6636 90.6708 96.6636V96.6636ZM92.865 105.128C92.8635 105.709 92.6318 106.267 92.2206 106.678C91.8095 107.089 91.2523 107.32 90.6708 107.322H89.8745C89.293 107.32 88.7358 107.089 88.3247 106.678C87.9135 106.267 87.6818 105.709 87.6803 105.128V101.217C87.6818 100.636 87.9135 100.078 88.3247 99.6673C88.7358 99.2562 89.293 99.0245 89.8745 99.023H90.6708C91.2523 99.0245 91.8095 99.2562 92.2206 99.6673C92.6318 100.078 92.8635 100.636 92.865 101.217V105.128Z" fill="#365EDC"/>
</g>
</svg>
