<svg width="151" height="151" viewBox="0 0 151 151" fill="none" xmlns="http://www.w3.org/2000/svg">
<g opacity="0.5">
<path d="M75.5 115.35L65.1423 108.655C59.2377 104.854 54.3836 99.6296 51.0266 93.4618C47.6695 87.294 45.9173 80.3811 45.9311 73.3589V45.2469L75.5 34.2109L105.069 45.2587V73.3707C105.083 80.3929 103.33 87.3058 99.9734 93.4736C96.6164 99.6414 91.7623 104.866 85.8576 108.667L75.5 115.35ZM48.2905 46.8867V73.3589C48.2767 79.9868 49.9301 86.5118 53.0985 92.3334C56.267 98.155 60.8488 103.086 66.4223 106.673L75.5 112.536L84.5718 106.667C90.1453 103.08 94.727 98.1491 97.8955 92.3275C101.064 86.5059 102.717 79.9809 102.704 73.353V46.8867L75.5 36.7178L48.2905 46.8867Z" fill="#365EDC"/>
<path d="M75.5 129.394L58.7425 118.559C51.1806 113.692 44.964 107.001 40.6648 99.1029C36.3657 91.2044 34.122 82.3515 34.1402 73.3589V37.0658L75.5 21.606L116.866 37.0658V73.3589C116.883 82.3521 114.639 91.2053 110.338 99.1038C106.038 107.002 99.8205 113.692 92.2575 118.559L75.5 129.394ZM36.4936 38.6996V73.3589C36.476 81.9572 38.6211 90.4219 42.7317 97.9741C46.8422 105.526 52.7862 111.923 60.0166 116.577L75.4941 126.604L90.9716 116.577C98.202 111.923 104.146 105.526 108.257 97.9741C112.367 90.4219 114.512 81.9572 114.495 73.3589V38.6996L75.5 24.1246L36.4936 38.6996Z" fill="#365EDC"/>
<path d="M72.6806 82.3658L63.9509 73.1052L65.6614 71.489L72.7572 79.0037L89.1785 63.0602L90.8241 64.753L72.6806 82.3658Z" fill="#365EDC"/>
</g>
</svg>
