<svg width="151" height="151" viewBox="0 0 151 151" fill="none" xmlns="http://www.w3.org/2000/svg">
<g opacity="0.5">
<path d="M42.628 45.6892C40.4269 45.6892 38.2752 45.0365 36.4449 43.8138C34.6147 42.591 33.1881 40.8531 32.3455 38.8196C31.5029 36.7861 31.2821 34.5485 31.7111 32.3896C32.1401 30.2307 33.1996 28.2474 34.7556 26.6906C36.3116 25.1337 38.2943 24.0732 40.453 23.6431C42.6117 23.2129 44.8494 23.4325 46.8833 24.274C48.9172 25.1156 50.656 26.5412 51.8797 28.3708C53.1034 30.2004 53.7572 32.3518 53.7584 34.5529C53.7552 37.5045 52.5818 40.3343 50.4953 42.4219C48.4088 44.5095 45.5795 45.6845 42.628 45.6892V45.6892ZM42.628 25.7819C40.8933 25.7819 39.1975 26.2964 37.7551 27.2601C36.3127 28.2239 35.1885 29.5937 34.5247 31.1964C33.8608 32.7991 33.6871 34.5627 34.0256 36.2641C34.364 37.9655 35.1993 39.5283 36.426 40.7549C37.6526 41.9816 39.2155 42.8169 40.9169 43.1554C42.6183 43.4938 44.3818 43.3201 45.9845 42.6563C47.5872 41.9924 48.957 40.8682 49.9208 39.4258C50.8846 37.9834 51.399 36.2877 51.399 34.5529C51.3959 32.2277 50.4708 29.9986 48.8266 28.3544C47.1824 26.7102 44.9533 25.7851 42.628 25.7819Z" fill="#365EDC"/>
<path d="M42.4688 75.8185L37.8503 72.0907L40.0681 52.8146H44.8694L47.0872 72.0907L42.4688 75.8185ZM40.3453 71.0997L42.4688 72.7867L44.5922 71.0702L42.7637 55.1798H42.1738L40.3453 71.0997Z" fill="#365EDC"/>
<path d="M66.5639 61.5736C66.5592 57.9661 65.124 54.5076 62.5731 51.9567C60.0222 49.4058 56.5637 47.9706 52.9562 47.9659H33.2436C29.6361 47.9706 26.1776 49.4058 23.6267 51.9567C21.0758 54.5076 19.6406 57.9661 19.6359 61.5736V87.7332V89.0191C19.6336 90.1782 19.9578 91.3145 20.5715 92.2979C21.1851 93.2812 22.0634 94.0718 23.1056 94.5791C24.1478 95.0864 25.3119 95.2898 26.4644 95.166C27.6169 95.0423 28.7112 94.5964 29.622 93.8794V95.2065H56.5601V93.8853C57.4704 94.6037 58.5648 95.051 59.7177 95.1759C60.8706 95.3008 62.0354 95.0983 63.0785 94.5916C64.1215 94.0848 65.0007 93.2943 65.615 92.3108C66.2294 91.3273 66.5542 90.1905 66.5521 89.0309V87.7332L66.5639 61.5736ZM45.589 50.3253L43.2945 52.8204H41.6607L39.5195 50.3253H45.589ZM25.8234 92.8472C25.3217 92.8472 24.825 92.7483 24.3616 92.5561C23.8982 92.3639 23.4772 92.0823 23.1228 91.7273C22.7683 91.3723 22.4873 90.9509 22.2959 90.4872C22.1044 90.0235 22.0063 89.5266 22.0071 89.025V85.1261H29.6397V89.1134C29.6181 90.1112 29.2065 91.0608 28.4931 91.7587C27.7797 92.4567 26.8214 92.8474 25.8234 92.8472ZM31.9931 92.8472V89.1134C31.9931 89.1134 31.9931 89.0545 31.9931 89.0309V82.7667V66.3278H29.6338V82.7667H21.9658V61.5736C21.9673 60.0944 22.2603 58.63 22.828 57.2641C23.3957 55.8982 24.2269 54.6575 25.2742 53.6129C26.3215 52.5683 27.5644 51.7403 28.9318 51.1762C30.2992 50.6121 31.7644 50.323 33.2436 50.3253H36.4347L40.5636 55.1856H44.3209L48.786 50.3253H52.9444C55.9267 50.3284 58.7859 51.5145 60.8947 53.6233C63.0035 55.7321 64.1896 58.5914 64.1927 61.5736V82.7667H56.5247V66.3278H54.1654V89.0191C54.1654 89.0486 54.1654 89.0781 54.1654 89.1134V92.8472H31.9931ZM64.1868 89.0309C64.1978 90.043 63.8062 91.018 63.0982 91.7415C62.3903 92.4649 61.424 92.8775 60.4118 92.8884C59.3997 92.8994 58.4246 92.5078 57.7012 91.7999C56.9778 91.0919 56.5652 90.1256 56.5542 89.1134V85.1261H64.1809L64.1868 89.0309Z" fill="#365EDC"/>
<path d="M107.428 78.0599C105.227 78.0599 103.075 77.4071 101.245 76.1841C99.4142 74.9611 97.9876 73.2228 97.1451 71.189C96.3027 69.1551 96.0823 66.9172 96.5118 64.7581C96.9412 62.599 98.0013 60.6158 99.5579 59.0592C101.115 57.5026 103.098 56.4425 105.257 56.0131C107.416 55.5836 109.654 55.804 111.688 56.6464C113.721 57.4889 115.46 58.9155 116.683 60.7459C117.906 62.5762 118.559 64.7282 118.559 66.9296C118.554 69.8801 117.38 72.7084 115.293 74.7947C113.207 76.8811 110.379 78.0552 107.428 78.0599ZM107.428 58.1527C105.694 58.1527 103.998 58.6669 102.556 59.6304C101.114 60.5939 99.9895 61.9634 99.3255 63.5658C98.6615 65.1681 98.4874 66.9314 98.8254 68.6326C99.1633 70.3339 99.9981 71.8967 101.224 73.1236C102.45 74.3505 104.012 75.1863 105.714 75.5254C107.415 75.8645 109.178 75.6916 110.781 75.0287C112.383 74.3657 113.754 73.2424 114.718 71.8008C115.683 70.3592 116.198 68.664 116.199 66.9296C116.198 64.6033 115.273 62.3726 113.629 60.7272C111.985 59.0817 109.755 58.1558 107.428 58.1527V58.1527Z" fill="#365EDC"/>
<path fill-rule="evenodd" clip-rule="evenodd" d="M106.296 47.2287H108.661V41.637C108.655 37.1586 106.873 32.8654 103.706 29.6987C100.54 26.5319 96.2463 24.7501 91.7679 24.7439H66.8765V27.1033H91.762C95.6152 27.108 99.3092 28.6407 102.034 31.3653C104.758 34.0899 106.291 37.7839 106.296 41.637V47.2287Z" fill="#365EDC"/>
<path fill-rule="evenodd" clip-rule="evenodd" d="M48.5416 119.641C51.2662 122.365 54.9602 123.898 58.8133 123.903L74.1493 123.891V126.25H58.8133C54.3349 126.244 50.0417 124.462 46.875 121.295C43.7083 118.129 41.9264 113.835 41.9202 109.357V103.777H44.2796V109.369C44.2843 113.222 45.817 116.916 48.5416 119.641Z" fill="#365EDC"/>
<path fill-rule="evenodd" clip-rule="evenodd" d="M127.964 93.9444C127.96 90.3368 126.733 86.8784 124.551 84.3275C122.37 81.7765 119.413 80.3414 116.328 80.3367L114.684 82.6961H116.318C118.868 82.6992 121.313 83.8853 123.116 85.9941C124.919 88.1028 125.934 90.9621 125.936 93.9444V115.137L125.931 117.497L125.936 121.402C125.941 121.903 125.86 122.4 125.7 122.865C125.54 123.33 125.304 123.753 125.004 124.111C124.704 124.469 124.346 124.755 123.952 124.951C123.558 125.147 123.134 125.251 122.706 125.256C122.277 125.261 121.852 125.168 121.455 124.98C121.057 124.793 120.695 124.516 120.389 124.166C120.083 123.815 119.839 123.397 119.671 122.936C119.503 122.475 119.414 121.979 119.41 121.478V117.497L119.38 115.137V98.6985H117.362V121.39V121.478V125.218H98.4079V121.508V121.413V115.137V98.6985H96.3905V115.137L96.3854 117.497V121.508C96.3618 122.5 96.0083 123.443 95.3999 124.136C94.7919 124.828 93.9772 125.216 93.1286 125.218C92.7009 125.217 92.2774 125.118 91.8823 124.927C91.486 124.735 91.1261 124.453 90.823 124.098C90.5199 123.743 90.2796 123.322 90.1159 122.858C89.9522 122.394 89.8683 121.897 89.869 121.396V117.497L89.8337 115.137V93.9444C89.8363 90.9621 90.8506 88.1028 92.6538 85.9941C94.457 83.8853 96.9019 82.6992 99.452 82.6961L98.6262 80.3739C95.8509 80.6143 93.2298 82.0107 91.2488 84.3275C89.0676 86.8784 87.8404 90.3368 87.8364 93.9444V120.104V121.39C87.8359 122.55 88.1152 123.687 88.6422 124.67C89.1692 125.653 89.9225 126.442 90.8156 126.947C91.7088 127.452 92.7057 127.653 93.6917 127.525C94.6778 127.398 95.6132 126.947 96.3905 126.227V127.554H119.415V126.227C120.193 126.945 121.129 127.392 122.115 127.517C123.101 127.642 124.097 127.44 124.989 126.933C125.88 126.426 126.632 125.636 127.158 124.652C127.683 123.669 127.961 122.532 127.959 121.372V120.074L127.964 93.9444Z" fill="#365EDC"/>
<path fill-rule="evenodd" clip-rule="evenodd" d="M115.537 98.0613C114.909 98.7695 113.908 99.2739 112.468 99.2739C111.054 99.2739 110.042 98.8144 109.384 98.1415C108.771 97.5154 108.522 96.7571 108.522 96.2326H110.881C110.881 96.2068 110.881 96.1951 110.882 96.1949C110.887 96.194 110.916 96.3335 111.07 96.4912C111.223 96.6471 111.594 96.9145 112.468 96.9145C113.314 96.9145 113.643 96.6414 113.773 96.4954C113.853 96.4051 113.901 96.3124 113.928 96.2396C113.946 96.1912 113.951 96.1648 113.951 96.1648C113.951 96.1648 113.947 96.1863 113.947 96.2326H116.307C116.307 96.666 116.113 97.4122 115.537 98.0613Z" fill="#365EDC"/>
<path fill-rule="evenodd" clip-rule="evenodd" d="M106.524 98.0613C105.895 98.7695 104.894 99.2739 103.454 99.2739C102.041 99.2739 101.029 98.8144 100.37 98.1415C99.7577 97.5154 99.5085 96.7571 99.5085 96.2326H101.868C101.868 96.2068 101.867 96.1951 101.869 96.1949C101.874 96.194 101.902 96.3335 102.057 96.4912C102.209 96.6471 102.58 96.9145 103.454 96.9145C104.301 96.9145 104.629 96.6414 104.759 96.4954C104.839 96.4051 104.887 96.3124 104.915 96.2396C104.933 96.1912 104.937 96.1648 104.937 96.1648C104.937 96.1648 104.934 96.1863 104.934 96.2326H107.293C107.293 96.666 107.1 97.4122 106.524 98.0613Z" fill="#365EDC"/>
<rect x="96.2979" y="66.3252" width="2.34789" height="14.4928" fill="#365EDC"/>
<rect x="116.224" y="66.9296" width="2.33471" height="14.4928" fill="#365EDC"/>
<path fill-rule="evenodd" clip-rule="evenodd" d="M118.246 81.889L107.301 94.1538L96.3958 81.8873L98.1591 80.3197L107.304 90.6065L116.485 80.3181L118.246 81.889Z" fill="#365EDC"/>
<rect x="88.4766" y="100.863" width="8.84766" height="2.35937" fill="#365EDC"/>
<rect x="118.559" y="100.863" width="8.84766" height="2.35937" fill="#365EDC"/>
<path fill-rule="evenodd" clip-rule="evenodd" d="M101.595 77.2695V75.5H103.954V77.2695C103.954 80.2014 101.578 82.5781 98.6458 82.5781V80.2188C100.275 80.2188 101.595 78.8983 101.595 77.2695Z" fill="#365EDC"/>
<path fill-rule="evenodd" clip-rule="evenodd" d="M113.25 77.2695V75.5H110.891V77.2695C110.891 80.2014 113.267 82.5781 116.199 82.5781V80.2188C114.57 80.2188 113.25 78.8983 113.25 77.2695Z" fill="#365EDC"/>
<path fill-rule="evenodd" clip-rule="evenodd" d="M105.293 61.2071C105.794 60.2318 106.054 59.1543 106.054 58.062H108.413C108.413 59.5296 108.063 60.976 107.393 62.2838C106.722 63.5914 105.75 64.723 104.556 65.5876C103.362 66.4521 101.98 67.0255 100.522 67.2622M100.522 67.2622L100.489 67.2676C100.489 67.2676 100.489 67.2676 100.489 67.2676C100.461 67.2722 100.432 67.2768 100.404 67.2814C99.1944 67.4782 97.8889 67.6905 96.3979 67.2235L97.1031 64.972C98.0232 65.2602 98.8192 65.1484 100.111 64.9387L100.111 64.9387L100.144 64.9333L100.144 64.9333C101.24 64.7554 102.278 64.3245 103.172 63.6767C104.067 63.0289 104.793 62.1825 105.293 61.2071L106.343 61.7454L105.293 61.2071" fill="#365EDC"/>
<path fill-rule="evenodd" clip-rule="evenodd" d="M109.563 61.2071C109.063 60.2318 108.803 59.1543 108.803 58.062H106.443C106.443 59.5296 106.793 60.976 107.464 62.2838C108.134 63.5914 109.106 64.723 110.3 65.5876C111.494 66.4521 112.876 67.0255 114.334 67.2622M114.334 67.2622L114.368 67.2676C114.368 67.2676 114.368 67.2676 114.368 67.2676C114.396 67.2722 114.424 67.2768 114.453 67.2814C115.662 67.4782 116.968 67.6905 118.459 67.2235L117.753 64.972C116.833 65.2602 116.037 65.1484 114.746 64.9387L114.746 64.9387L114.712 64.9333L114.712 64.9333C113.616 64.7554 112.579 64.3245 111.684 63.6767C110.79 63.0289 110.063 62.1825 109.563 61.2071L108.513 61.7454L109.563 61.2071" fill="#365EDC"/>
<rect x="79.0391" y="39.5195" width="2.35938" height="16.5156" fill="#365EDC"/>
<rect x="88.4766" y="46.5977" width="2.35938" height="16.5156" transform="rotate(90 88.4766 46.5977)" fill="#365EDC"/>
<rect x="74.3203" y="109.121" width="2.35937" height="16.5156" transform="rotate(90 74.3203 109.121)" fill="#365EDC"/>
</g>
</svg>
