<svg width="68" height="68" viewBox="0 0 68 68" fill="none" xmlns="http://www.w3.org/2000/svg">
<g clip-path="url(#clip0_417_2784)">
<circle cx="34" cy="33.6471" r="34" fill="#9EA2A8" fill-opacity="0.11"/>
<circle cx="34" cy="33.6471" r="33" stroke="white" stroke-opacity="0.05" stroke-width="2"/>
</g>
<circle cx="34" cy="33.6471" r="25" fill="#586878" fill-opacity="0.18"/>
<circle cx="34" cy="33.6471" r="24" stroke="white" stroke-opacity="0.2" stroke-width="2"/>
<circle cx="34" cy="33.6471" r="20" fill="#365EDC"/>
<path d="M40.3037 34.8089L39.7538 34.2989L40.3037 34.8089ZM33.2326 27.7378L33.7426 28.2877L33.2326 27.7378ZM43.661 26.2723L44.4047 26.3696L43.661 26.2723ZM41.7692 24.3805L41.8664 25.1241L41.8664 25.1241L41.7692 24.3805ZM28.4945 34.6506L29.1679 34.9808L28.4945 34.6506ZM33.3909 39.547L33.0607 38.8736L33.0607 38.8736L33.3909 39.547ZM30.2274 32.1572C29.9345 31.8643 29.4597 31.8643 29.1668 32.1572C28.8739 32.4501 28.8739 32.925 29.1668 33.2179L30.2274 32.1572ZM34.8236 38.8747C35.1165 39.1676 35.5914 39.1676 35.8843 38.8747C36.1772 38.5818 36.1772 38.107 35.8843 37.8141L34.8236 38.8747ZM28.4597 40.6425C28.7525 40.3496 28.7525 39.8747 28.4597 39.5818C28.1668 39.2889 27.6919 39.2889 27.399 39.5818L28.4597 40.6425ZM24.5706 42.4103C24.2777 42.7032 24.2777 43.178 24.5706 43.4709C24.8635 43.7638 25.3383 43.7638 25.6312 43.4709L24.5706 42.4103ZM26.3383 38.5212C26.6312 38.2283 26.6312 37.7534 26.3383 37.4605C26.0454 37.1676 25.5706 37.1676 25.2777 37.4605L26.3383 38.5212ZM23.8635 38.8747C23.5706 39.1676 23.5706 39.6425 23.8635 39.9354C24.1564 40.2283 24.6312 40.2283 24.9241 39.9354L23.8635 38.8747ZM30.581 42.7638C30.8739 42.4709 30.8739 41.996 30.581 41.7032C30.2881 41.4103 29.8132 41.4103 29.5203 41.7032L30.581 42.7638ZM28.1061 43.1174C27.8132 43.4103 27.8132 43.8851 28.1061 44.178C28.399 44.4709 28.8739 44.4709 29.1668 44.178L28.1061 43.1174ZM32.5962 43.082L33.3387 42.9759L33.3387 42.9759L32.5962 43.082ZM37.7581 39.6172L38.5006 39.5111L38.5006 39.5111L37.7581 39.6172ZM24.9595 35.4453L25.0655 34.7028L25.0655 34.7028L24.9595 35.4453ZM28.4243 30.2834L28.3182 31.0259L28.3182 31.0259L28.4243 30.2834ZM31.7504 38.63L29.4115 36.2911L28.3509 37.3518L30.6897 39.6906L31.7504 38.63ZM39.7538 34.2989C37.8601 36.3406 34.7854 38.028 33.0607 38.8736L33.721 40.2204C35.4613 39.3673 38.7569 37.5795 40.8536 35.3189L39.7538 34.2989ZM29.1679 34.9808C30.0134 33.256 31.7009 30.1814 33.7426 28.2877L32.7226 27.1879C30.462 29.2846 28.6742 32.5802 27.8211 34.3205L29.1679 34.9808ZM42.9174 26.1751C42.6135 28.4984 41.8062 32.086 39.7538 34.2989L40.8536 35.3189C43.2491 32.7361 44.0962 28.7286 44.4047 26.3696L42.9174 26.1751ZM33.7426 28.2877C35.9555 26.2353 39.5431 25.428 41.8664 25.1241L41.6719 23.6368C39.3129 23.9453 35.3054 24.7924 32.7226 27.1879L33.7426 28.2877ZM44.4047 26.3696C44.6158 24.7557 43.2858 23.4257 41.6719 23.6368L41.8664 25.1241C42.5034 25.0408 43.0007 25.5381 42.9174 26.1751L44.4047 26.3696ZM29.4115 36.2911C29.0483 35.9279 28.9596 35.4057 29.1679 34.9808L27.8211 34.3205C27.3129 35.3571 27.5631 36.564 28.3509 37.3518L29.4115 36.2911ZM30.6897 39.6906C31.4775 40.4784 32.6844 40.7286 33.721 40.2204L33.0607 38.8736C32.6358 39.0819 32.1135 38.9932 31.7504 38.63L30.6897 39.6906ZM29.1668 33.2179L34.8236 38.8747L35.8843 37.8141L30.2274 32.1572L29.1668 33.2179ZM27.399 39.5818L24.5706 42.4103L25.6312 43.4709L28.4597 40.6425L27.399 39.5818ZM25.2777 37.4605L23.8635 38.8747L24.9241 39.9354L26.3383 38.5212L25.2777 37.4605ZM29.5203 41.7032L28.1061 43.1174L29.1668 44.178L30.581 42.7638L29.5203 41.7032ZM35.1772 28.9752C34.1032 30.0492 34.1032 31.7904 35.1772 32.8643L36.2378 31.8037C35.7497 31.3155 35.7497 30.524 36.2378 30.0359L35.1772 28.9752ZM35.1772 32.8643C36.2511 33.9383 37.9923 33.9383 39.0663 32.8643L38.0056 31.8037C37.5174 32.2918 36.726 32.2918 36.2378 31.8037L35.1772 32.8643ZM39.0663 32.8643C40.1402 31.7904 40.1402 30.0492 39.0663 28.9752L38.0056 30.0359C38.4938 30.524 38.4938 31.3155 38.0056 31.8037L39.0663 32.8643ZM39.0663 28.9752C37.9923 27.9013 36.2511 27.9013 35.1772 28.9752L36.2378 30.0359C36.726 29.5477 37.5174 29.5477 38.0056 30.0359L39.0663 28.9752ZM36.9449 39.9354L33.763 43.1174L34.8236 44.178L38.0056 40.996L36.9449 39.9354ZM33.3387 42.9759L32.9144 40.0061L31.4295 40.2182L31.8538 43.1881L33.3387 42.9759ZM36.7328 37.7434L37.0156 39.7233L38.5006 39.5111L38.2177 37.5312L36.7328 37.7434ZM33.763 43.1174C33.6173 43.263 33.3678 43.1799 33.3387 42.9759L31.8538 43.1881C32.0577 44.6157 33.8039 45.1977 34.8236 44.178L33.763 43.1174ZM38.0056 40.996C38.3951 40.6066 38.5785 40.0564 38.5006 39.5111L37.0156 39.7233C37.0268 39.8011 37.0006 39.8797 36.9449 39.9354L38.0056 40.996ZM27.0454 30.0359L23.8634 33.2179L24.9241 34.2786L28.1061 31.0966L27.0454 30.0359ZM24.8534 36.1877L27.8232 36.612L28.0354 35.1271L25.0655 34.7028L24.8534 36.1877ZM30.5102 29.8238L28.5303 29.5409L28.3182 31.0259L30.2981 31.3087L30.5102 29.8238ZM23.8634 33.2179C22.8437 34.2376 23.4258 35.9838 24.8534 36.1877L25.0655 34.7028C24.8616 34.6737 24.7784 34.4242 24.9241 34.2786L23.8634 33.2179ZM28.1061 31.0966C28.1617 31.0409 28.2403 31.0147 28.3182 31.0259L28.5303 29.5409C27.9851 29.463 27.4349 29.6464 27.0454 30.0359L28.1061 31.0966Z" fill="white"/>
<defs>
<clipPath id="clip0_417_2784">
<rect width="68" height="68" fill="white"/>
</clipPath>
</defs>
</svg>
