<svg width="68" height="68" viewBox="0 0 68 68" fill="none" xmlns="http://www.w3.org/2000/svg">
<g clip-path="url(#clip0_417_2786)">
<circle cx="34" cy="33.6471" r="34" fill="#9EA2A8" fill-opacity="0.11"/>
<circle cx="34" cy="33.6471" r="33" stroke="white" stroke-opacity="0.05" stroke-width="2"/>
</g>
<circle cx="34" cy="33.6471" r="25" fill="#586878" fill-opacity="0.18"/>
<circle cx="34" cy="33.6471" r="24" stroke="white" stroke-opacity="0.2" stroke-width="2"/>
<circle cx="34" cy="33.6471" r="20" fill="#365EDC"/>
<rect x="24" y="28" width="20" height="16" rx="5" stroke="white" stroke-width="1.5"/>
<path d="M41 28.5V28.5C41 26.1769 38.8678 24.439 36.5924 24.9074L27.9917 26.6782C25.6677 27.1567 24 29.2027 24 31.5755L24 35" stroke="white" stroke-width="1.5"/>
<path d="M28 39.5H34" stroke="white" stroke-width="1.5" stroke-linecap="round" stroke-linejoin="round"/>
<path d="M37 36C37 34.6193 38.1193 33.5 39.5 33.5H44V38.5H39.5C38.1193 38.5 37 37.3807 37 36V36Z" stroke="white" stroke-width="1.5"/>
<path d="M39.5 36H39.7" stroke="white" stroke-width="1.5" stroke-linecap="round" stroke-linejoin="round"/>
<defs>
<clipPath id="clip0_417_2786">
<rect width="68" height="68" fill="white"/>
</clipPath>
</defs>
</svg>
