<svg width="90" height="72" viewBox="0 0 90 72" fill="none" xmlns="http://www.w3.org/2000/svg">
<path d="M52.3559 46.0848H79.1356C84.1356 46.0848 88.1186 42.017 88.1186 37.1018C88.1186 32.1865 84.0508 28.1187 79.1356 28.1187C79.1356 28.1187 77.6102 19.1357 70.1525 19.1357H10.661L7.69491 11.5933C7.35593 10.5763 6.42373 10.0679 5.57627 10.0679H2.52542C1.67797 10.0679 1 10.7458 1 11.5933V22.1018C1 35.6611 11.5085 46.1696 25.0678 46.1696" stroke="#365EDC" stroke-width="2" stroke-miterlimit="10" stroke-linecap="round" stroke-linejoin="round"/>
<path d="M56.5932 28.0338C57.4357 28.0338 58.1187 27.3508 58.1187 26.5083C58.1187 25.6659 57.4357 24.9829 56.5932 24.9829C55.7508 24.9829 55.0678 25.6659 55.0678 26.5083C55.0678 27.3508 55.7508 28.0338 56.5932 28.0338Z" stroke="#365EDC" stroke-width="2" stroke-miterlimit="10" stroke-linecap="round" stroke-linejoin="round"/>
<path d="M47.6101 28.0338C48.4526 28.0338 49.1356 27.3508 49.1356 26.5083C49.1356 25.6659 48.4526 24.9829 47.6101 24.9829C46.7677 24.9829 46.0847 25.6659 46.0847 26.5083C46.0847 27.3508 46.7677 28.0338 47.6101 28.0338Z" stroke="#365EDC" stroke-width="2" stroke-miterlimit="10" stroke-linecap="round" stroke-linejoin="round"/>
<path d="M38.5424 28.0338C39.3849 28.0338 40.0678 27.3508 40.0678 26.5083C40.0678 25.6659 39.3849 24.9829 38.5424 24.9829C37.6999 24.9829 37.017 25.6659 37.017 26.5083C37.017 27.3508 37.6999 28.0338 38.5424 28.0338Z" stroke="#365EDC" stroke-width="2" stroke-miterlimit="10" stroke-linecap="round" stroke-linejoin="round"/>
<path d="M29.5593 28.0338C30.4018 28.0338 31.0847 27.3508 31.0847 26.5083C31.0847 25.6659 30.4018 24.9829 29.5593 24.9829C28.7168 24.9829 28.0339 25.6659 28.0339 26.5083C28.0339 27.3508 28.7168 28.0338 29.5593 28.0338Z" stroke="#365EDC" stroke-width="2" stroke-miterlimit="10" stroke-linecap="round" stroke-linejoin="round"/>
<path d="M20.5763 28.0338C21.4187 28.0338 22.1017 27.3508 22.1017 26.5083C22.1017 25.6659 21.4187 24.9829 20.5763 24.9829C19.7338 24.9829 19.0508 25.6659 19.0508 26.5083C19.0508 27.3508 19.7338 28.0338 20.5763 28.0338Z" stroke="#365EDC" stroke-width="2" stroke-miterlimit="10" stroke-linecap="round" stroke-linejoin="round"/>
<path d="M73.1186 28.0338H69.3898C67.5254 28.0338 66.2542 26.6779 65.5763 25.0677L64.0508 19.0508" stroke="#365EDC" stroke-width="2" stroke-miterlimit="10" stroke-linecap="round" stroke-linejoin="round"/>
<path d="M55.1525 40.0679L41.5932 68.6272C41.1695 69.4746 40.2373 70.1526 39.3898 70.1526H32.6101C31.7627 70.1526 31.0847 69.4746 31.0847 68.6272V40.0679H49.1356" stroke="#365EDC" stroke-width="2" stroke-miterlimit="10" stroke-linecap="round" stroke-linejoin="round"/>
<path d="M61.0847 40.0679H79.1356" stroke="#365EDC" stroke-width="2" stroke-miterlimit="10" stroke-linecap="round" stroke-linejoin="round"/>
<path d="M55.1525 40.0679L41.5932 68.6272C41.1695 69.4746 40.2373 70.1526 39.3898 70.1526H32.6101C31.7627 70.1526 31.0847 69.4746 31.0847 68.6272V40.0679H49.1356" stroke="#365EDC" stroke-width="2" stroke-miterlimit="10" stroke-linecap="round" stroke-linejoin="round"/>
<path d="M46.0847 13.0339L41.5932 2.61017C41.1695 1.67797 40.2373 1 39.3898 1H32.6101C31.7627 1 31.0847 1.67797 31.0847 2.61017V13.0339" stroke="#365EDC" stroke-width="2" stroke-miterlimit="10" stroke-linecap="round" stroke-linejoin="round"/>
<path d="M19.0508 1H22.0169" stroke="#365EDC" stroke-width="2" stroke-miterlimit="10" stroke-linecap="round" stroke-linejoin="round"/>
<path d="M16 9.98291H22.0169" stroke="#365EDC" stroke-width="2" stroke-miterlimit="10" stroke-linecap="round" stroke-linejoin="round"/>
<path d="M13.0339 52.1016H22.0169" stroke="#365EDC" stroke-width="2" stroke-miterlimit="10" stroke-linecap="round" stroke-linejoin="round"/>
<path d="M7.01697 61.085H22.017" stroke="#365EDC" stroke-width="2" stroke-miterlimit="10" stroke-linecap="round" stroke-linejoin="round"/>
<path d="M16 70.1523H22.0169" stroke="#365EDC" stroke-width="2" stroke-miterlimit="10" stroke-linecap="round" stroke-linejoin="round"/>
</svg>
