<svg width="89" height="59" viewBox="0 0 89 59" fill="none" xmlns="http://www.w3.org/2000/svg">
<path d="M69.3051 51.593C74.2195 51.593 78.2034 47.6091 78.2034 42.6947C78.2034 37.7803 74.2195 33.7964 69.3051 33.7964C64.3907 33.7964 60.4068 37.7803 60.4068 42.6947C60.4068 47.6091 64.3907 51.593 69.3051 51.593Z" stroke="#365EDC" stroke-width="2" stroke-miterlimit="10" stroke-linecap="round" stroke-linejoin="round"/>
<path d="M69.3051 45.6612C70.9432 45.6612 72.2712 44.3332 72.2712 42.6951C72.2712 41.057 70.9432 39.729 69.3051 39.729C67.667 39.729 66.339 41.057 66.339 42.6951C66.339 44.3332 67.667 45.6612 69.3051 45.6612Z" stroke="#365EDC" stroke-width="2" stroke-miterlimit="10" stroke-linecap="round" stroke-linejoin="round"/>
<path d="M18.8813 51.593C23.7957 51.593 27.7796 47.6091 27.7796 42.6947C27.7796 37.7803 23.7957 33.7964 18.8813 33.7964C13.9669 33.7964 9.98303 37.7803 9.98303 42.6947C9.98303 47.6091 13.9669 51.593 18.8813 51.593Z" stroke="#365EDC" stroke-width="2" stroke-miterlimit="10" stroke-linecap="round" stroke-linejoin="round"/>
<path d="M18.8814 45.6612C20.5195 45.6612 21.8475 44.3332 21.8475 42.6951C21.8475 41.057 20.5195 39.729 18.8814 39.729C17.2433 39.729 15.9153 41.057 15.9153 42.6951C15.9153 44.3332 17.2433 45.6612 18.8814 45.6612Z" stroke="#365EDC" stroke-width="2" stroke-miterlimit="10" stroke-linecap="round" stroke-linejoin="round"/>
<path d="M60.4068 21.8477H3.9661C2.35593 21.8477 1 23.2036 1 24.8138V39.6443C1 41.2544 2.35593 42.6104 3.9661 42.6104H4.72881" stroke="#365EDC" stroke-width="2" stroke-miterlimit="10" stroke-linecap="round" stroke-linejoin="round"/>
<path d="M27.7797 42.6953H54.4746" stroke="#365EDC" stroke-width="2" stroke-miterlimit="10" stroke-linecap="round" stroke-linejoin="round"/>
<path d="M12.8644 15.9153L17.3559 5.49153C18.8813 2.52542 21.339 1 24.8135 1C27.7796 1 45.5762 1 45.5762 1C50.0678 1 53.7118 3.54237 55.9152 6.9322L64.8135 18.7966C64.8135 18.7966 66.2542 21.7627 69.2203 21.7627H73.7118C81.0847 21.7627 84.7288 26.2542 85.5762 30.661L86.9322 39.3051C87.4407 41.1695 86.1695 42.5254 84.0508 42.5254H78.1186" stroke="#365EDC" stroke-width="2" stroke-miterlimit="10" stroke-linecap="round" stroke-linejoin="round"/>
<path d="M81.1695 30.7456H85.661" stroke="#365EDC" stroke-width="2" stroke-miterlimit="10" stroke-linecap="round" stroke-linejoin="round"/>
<path d="M1 30.7456H3.9661" stroke="#365EDC" stroke-width="2" stroke-miterlimit="10" stroke-linecap="round" stroke-linejoin="round"/>
<path d="M33.7119 7.01709V21.8476L36.678 36.6781" stroke="#365EDC" stroke-width="2" stroke-miterlimit="10" stroke-linecap="round" stroke-linejoin="round"/>
<path d="M55.9153 15.915L52.9492 21.8472" stroke="#365EDC" stroke-width="2" stroke-miterlimit="10" stroke-linecap="round" stroke-linejoin="round"/>
<path d="M41.0847 27.7798H42.6101" stroke="#365EDC" stroke-width="2" stroke-miterlimit="10" stroke-linecap="round" stroke-linejoin="round"/>
<path d="M1 57.5254H21.8475" stroke="#365EDC" stroke-width="2" stroke-miterlimit="10" stroke-linecap="round" stroke-linejoin="round"/>
<path d="M30.7458 57.5254H45.5763" stroke="#365EDC" stroke-width="2" stroke-miterlimit="10" stroke-linecap="round" stroke-linejoin="round"/>
<path d="M63.3729 57.5254H87.1017" stroke="#365EDC" stroke-width="2" stroke-miterlimit="10" stroke-linecap="round" stroke-linejoin="round"/>
<path d="M54.4745 57.5254H57.4407" stroke="#365EDC" stroke-width="2" stroke-miterlimit="10" stroke-linecap="round" stroke-linejoin="round"/>
</svg>
