<svg width="80" height="78" viewBox="0 0 80 78" fill="none" xmlns="http://www.w3.org/2000/svg">
<path d="M16.8475 60.8306H18.5424" stroke="#365EDC" stroke-width="2" stroke-miterlimit="10" stroke-linecap="round" stroke-linejoin="round"/>
<path d="M16.8475 57.4409H18.5424" stroke="#365EDC" stroke-width="2" stroke-miterlimit="10" stroke-linecap="round" stroke-linejoin="round"/>
<path d="M62.6102 64.2203V7.77966C62.6102 3.9661 59.6441 1 55.8305 1H23.6271C19.8136 1 16.8475 3.9661 16.8475 7.77966V65.8305C16.8475 66.7627 17.6102 67.5254 18.5424 67.5254H62.6102" stroke="#365EDC" stroke-width="2" stroke-miterlimit="10" stroke-linecap="round" stroke-linejoin="round"/>
<path d="M42.2712 54.8981C42.2712 55.4066 41.9322 55.7456 41.4237 55.7456H36.339C35.8305 55.7456 35.4915 55.4066 35.4915 54.8981V48.1185C35.4915 47.61 35.8305 47.271 36.339 47.271H41.4237C41.9322 47.271 42.2712 47.61 42.2712 48.1185V54.8981Z" stroke="#365EDC" stroke-width="2" stroke-miterlimit="10" stroke-linecap="round" stroke-linejoin="round"/>
<path d="M73.7966 54.8981C73.7966 55.4066 73.4576 55.7456 72.9492 55.7456H67.8644C67.356 55.7456 67.017 55.4066 67.017 54.8981V48.1185C67.017 47.61 67.356 47.271 67.8644 47.271H72.9492C73.4576 47.271 73.7966 47.61 73.7966 48.1185V54.8981Z" stroke="#365EDC" stroke-width="2" stroke-miterlimit="10" stroke-linecap="round" stroke-linejoin="round"/>
<path d="M47.356 64.2202V48.1185C47.356 47.61 47.6949 47.271 48.2034 47.271H54.9831C55.4915 47.271 55.8305 47.61 55.8305 48.1185V64.2202" stroke="#365EDC" stroke-width="2" stroke-miterlimit="10" stroke-linecap="round" stroke-linejoin="round"/>
<path d="M30.4068 54.8981C30.4068 55.4066 30.0678 55.7456 29.5593 55.7456H24.4746C23.9661 55.7456 23.6271 55.4066 23.6271 54.8981V48.1185C23.6271 47.61 23.9661 47.271 24.4746 47.271H29.5593C30.0678 47.271 30.4068 47.61 30.4068 48.1185V54.8981Z" stroke="#365EDC" stroke-width="2" stroke-miterlimit="10" stroke-linecap="round" stroke-linejoin="round"/>
<path d="M42.2712 33.7966C42.2712 34.305 41.9322 34.644 41.4237 34.644H36.339C35.8305 34.644 35.4915 34.305 35.4915 33.7966V27.0169C35.4915 26.5084 35.8305 26.1694 36.339 26.1694H41.4237C41.9322 26.1694 42.2712 26.5084 42.2712 27.0169V33.7966Z" stroke="#365EDC" stroke-width="2" stroke-miterlimit="10" stroke-linecap="round" stroke-linejoin="round"/>
<path d="M54.3051 33.7966C54.3051 34.305 53.9661 34.644 53.4576 34.644H48.3728C47.8644 34.644 47.5254 34.305 47.5254 33.7966V27.0169C47.5254 26.5084 47.8644 26.1694 48.3728 26.1694H53.4576C53.9661 26.1694 54.3051 26.5084 54.3051 27.0169V33.7966Z" stroke="#365EDC" stroke-width="2" stroke-miterlimit="10" stroke-linecap="round" stroke-linejoin="round"/>
<path d="M54.3051 19.3898C54.3051 19.8983 53.9661 20.2373 53.4576 20.2373H48.3728C47.8644 20.2373 47.5254 19.8983 47.5254 19.3898V12.6102C47.5254 12.1017 47.8644 11.7627 48.3728 11.7627H53.4576C53.9661 11.7627 54.3051 12.1017 54.3051 12.6102V19.3898Z" stroke="#365EDC" stroke-width="2" stroke-miterlimit="10" stroke-linecap="round" stroke-linejoin="round"/>
<path d="M42.2712 19.3898C42.2712 19.8983 41.9322 20.2373 41.4237 20.2373H36.339C35.8305 20.2373 35.4915 19.8983 35.4915 19.3898V12.6102C35.4915 12.1017 35.8305 11.7627 36.339 11.7627H41.4237C41.9322 11.7627 42.2712 12.1017 42.2712 12.6102V19.3898Z" stroke="#365EDC" stroke-width="2" stroke-miterlimit="10" stroke-linecap="round" stroke-linejoin="round"/>
<path d="M30.2373 19.3898C30.2373 19.8983 29.8983 20.2373 29.3898 20.2373H24.3051C23.7966 20.2373 23.4576 19.8983 23.4576 19.3898V12.6102C23.4576 12.1017 23.7966 11.7627 24.3051 11.7627H29.3898C29.8983 11.7627 30.2373 12.1017 30.2373 12.6102V19.3898Z" stroke="#365EDC" stroke-width="2" stroke-miterlimit="10" stroke-linecap="round" stroke-linejoin="round"/>
<path d="M30.4068 33.7966C30.4068 34.305 30.0678 34.644 29.5593 34.644H24.4746C23.9661 34.644 23.6271 34.305 23.6271 33.7966V27.0169C23.6271 26.5084 23.9661 26.1694 24.4746 26.1694H29.5593C30.0678 26.1694 30.4068 26.5084 30.4068 27.0169V33.7966Z" stroke="#365EDC" stroke-width="2" stroke-miterlimit="10" stroke-linecap="round" stroke-linejoin="round"/>
<path d="M20.4068 39.3896H58.9661" stroke="#365EDC" stroke-width="2" stroke-miterlimit="10" stroke-linecap="round" stroke-linejoin="round"/>
<path d="M47.356 57.4409H49.0509" stroke="#365EDC" stroke-width="2" stroke-miterlimit="10" stroke-linecap="round" stroke-linejoin="round"/>
<path d="M16.8475 76.085H28.7119" stroke="#365EDC" stroke-width="2" stroke-miterlimit="10" stroke-linecap="round" stroke-linejoin="round"/>
<path d="M33.7966 76.085H42.2712" stroke="#365EDC" stroke-width="2" stroke-miterlimit="10" stroke-linecap="round" stroke-linejoin="round"/>
<path d="M52.4407 76.085H66" stroke="#365EDC" stroke-width="2" stroke-miterlimit="10" stroke-linecap="round" stroke-linejoin="round"/>
<path d="M47.356 76.085H49.0509" stroke="#365EDC" stroke-width="2" stroke-miterlimit="10" stroke-linecap="round" stroke-linejoin="round"/>
<path d="M66 31.6777H72.7797C75.9152 31.6777 78.4576 34.2201 78.4576 37.3557V67.6099H66" stroke="#365EDC" stroke-width="2" stroke-miterlimit="10" stroke-linecap="round" stroke-linejoin="round"/>
<path d="M5.66101 54.8981C5.66101 55.4066 5.99999 55.7456 6.50847 55.7456H11.5932C12.1017 55.7456 12.4407 55.4066 12.4407 54.8981V48.1185C12.4407 47.61 12.1017 47.271 11.5932 47.271H6.50847C5.99999 47.271 5.66101 47.61 5.66101 48.1185V54.8981Z" stroke="#365EDC" stroke-width="2" stroke-miterlimit="10" stroke-linecap="round" stroke-linejoin="round"/>
<path d="M13.4576 31.6777H6.67797C3.54237 31.6777 1 34.2201 1 37.3557V67.6099H13.4576" stroke="#365EDC" stroke-width="2" stroke-miterlimit="10" stroke-linecap="round" stroke-linejoin="round"/>
<path d="M17.017 6.08496H62.4407" stroke="#365EDC" stroke-width="2" stroke-miterlimit="10" stroke-linecap="round" stroke-linejoin="round"/>
</svg>
