<svg width="82" height="78" viewBox="0 0 82 78" fill="none" xmlns="http://www.w3.org/2000/svg">
<ellipse cx="40.3845" cy="9.02843" rx="4.01427" ry="4.01427" stroke="#365EDC" stroke-width="2"/>
<path d="M40.3845 25.0856L39.653 25.7675L40.3845 26.5522L41.116 25.7675L40.3845 25.0856ZM47.4131 9.02855C47.4131 12.4445 45.5477 16.2505 43.5607 19.3034C42.5812 20.8082 41.6001 22.0882 40.8637 22.992C40.496 23.4433 40.1904 23.7994 39.978 24.0413C39.8719 24.1622 39.7891 24.2544 39.7336 24.3156C39.7059 24.3463 39.685 24.3691 39.6714 24.3839C39.6646 24.3913 39.6596 24.3967 39.6565 24.4C39.655 24.4016 39.6539 24.4028 39.6533 24.4034C39.6531 24.4037 39.6529 24.4039 39.6528 24.404C39.6528 24.404 39.6529 24.404 39.6528 24.404C39.6529 24.4039 39.653 24.4038 40.3845 25.0856C41.116 25.7675 41.1161 25.7673 41.1163 25.7671C41.1165 25.767 41.1167 25.7667 41.1169 25.7665C41.1173 25.766 41.1179 25.7654 41.1186 25.7647C41.1199 25.7632 41.1218 25.7613 41.1241 25.7588C41.1287 25.7537 41.1353 25.7467 41.1437 25.7375C41.1605 25.7193 41.1846 25.6928 41.2157 25.6586C41.2778 25.59 41.3676 25.49 41.4809 25.3608C41.7076 25.1026 42.0293 24.7277 42.4142 24.2553C43.1832 23.3116 44.2092 21.9732 45.2369 20.3944C47.2641 17.2799 49.4131 13.0573 49.4131 9.02855H47.4131ZM40.3845 25.0856C41.116 24.4038 41.1161 24.4039 41.1162 24.404C41.1162 24.404 41.1162 24.404 41.1162 24.404C41.1161 24.4039 41.116 24.4037 41.1157 24.4034C41.1151 24.4028 41.114 24.4016 41.1125 24.4C41.1094 24.3967 41.1044 24.3913 41.0976 24.3839C41.084 24.3691 41.0631 24.3463 41.0354 24.3156C40.9799 24.2544 40.8971 24.1622 40.791 24.0413C40.5786 23.7994 40.273 23.4433 39.9053 22.992C39.1689 22.0882 38.1878 20.8082 37.2083 19.3034C35.2213 16.2505 33.356 12.4445 33.356 9.02855H31.356C31.356 13.0573 33.5049 17.2799 35.5321 20.3944C36.5598 21.9732 37.5858 23.3116 38.3548 24.2553C38.7397 24.7277 39.0614 25.1026 39.2881 25.3608C39.4015 25.49 39.4912 25.59 39.5533 25.6586C39.5844 25.6928 39.6085 25.7193 39.6253 25.7375C39.6337 25.7467 39.6403 25.7537 39.6449 25.7588C39.6472 25.7613 39.6491 25.7632 39.6504 25.7647C39.6511 25.7654 39.6517 25.766 39.6521 25.7665C39.6523 25.7667 39.6526 25.767 39.6527 25.7671C39.6529 25.7673 39.653 25.7675 40.3845 25.0856ZM33.356 9.02855C33.356 5.14679 36.5027 2 40.3845 2V0C35.3982 0 31.356 4.04222 31.356 9.02855H33.356ZM40.3845 2C44.2663 2 47.4131 5.14679 47.4131 9.02855H49.4131C49.4131 4.04222 45.3708 0 40.3845 0V2Z" fill="#365EDC"/>
<circle cx="72.2533" cy="59.2067" r="4.01427" stroke="#365EDC" stroke-width="2"/>
<path d="M72.2533 75.2639L71.5218 75.9457L72.2533 76.7304L72.9847 75.9457L72.2533 75.2639ZM79.2818 59.2068C79.2818 62.6227 77.4165 66.4287 75.4294 69.4816C74.45 70.9864 73.4689 72.2665 72.7325 73.1702C72.3648 73.6215 72.0591 73.9776 71.8468 74.2195C71.7406 74.3404 71.6579 74.4326 71.6024 74.4939C71.5747 74.5245 71.5538 74.5473 71.5402 74.5621C71.5334 74.5695 71.5284 74.5749 71.5253 74.5782C71.5238 74.5799 71.5227 74.581 71.5221 74.5816C71.5218 74.582 71.5217 74.5822 71.5216 74.5822C71.5216 74.5822 71.5216 74.5822 71.5216 74.5822C71.5217 74.5821 71.5218 74.582 72.2533 75.2639C72.9847 75.9457 72.9849 75.9456 72.9851 75.9453C72.9852 75.9452 72.9855 75.945 72.9857 75.9447C72.9861 75.9443 72.9867 75.9437 72.9874 75.9429C72.9887 75.9415 72.9906 75.9395 72.9929 75.937C72.9975 75.932 73.0041 75.9249 73.0125 75.9157C73.0292 75.8975 73.0534 75.8711 73.0845 75.8368C73.1466 75.7682 73.2363 75.6682 73.3497 75.539C73.5764 75.2808 73.898 74.9059 74.283 74.4335C75.052 73.4898 76.078 72.1515 77.1057 70.5726C79.1329 67.4581 81.2818 63.2356 81.2818 59.2068H79.2818ZM72.2533 75.2639C72.9847 74.582 72.9849 74.5821 72.9849 74.5822C72.9849 74.5822 72.985 74.5822 72.9849 74.5822C72.9849 74.5822 72.9847 74.582 72.9844 74.5816C72.9838 74.581 72.9828 74.5799 72.9812 74.5782C72.9782 74.5749 72.9732 74.5695 72.9664 74.5621C72.9528 74.5473 72.9319 74.5245 72.9042 74.4939C72.8487 74.4326 72.7659 74.3404 72.6598 74.2195C72.4474 73.9776 72.1418 73.6215 71.774 73.1702C71.0377 72.2665 70.0566 70.9864 69.0771 69.4816C67.09 66.4287 65.2247 62.6227 65.2247 59.2068H63.2247C63.2247 63.2356 65.3737 67.4581 67.4009 70.5726C68.4286 72.1515 69.4546 73.4898 70.2236 74.4335C70.6085 74.9059 70.9301 75.2808 71.1568 75.539C71.2702 75.6682 71.3599 75.7682 71.4221 75.8368C71.4531 75.8711 71.4773 75.8975 71.4941 75.9157C71.5025 75.9249 71.509 75.932 71.5137 75.937C71.516 75.9395 71.5178 75.9415 71.5192 75.9429C71.5199 75.9437 71.5204 75.9443 71.5209 75.9447C71.5211 75.945 71.5213 75.9452 71.5214 75.9453C71.5216 75.9456 71.5218 75.9457 72.2533 75.2639ZM65.2247 59.2068C65.2247 55.325 68.3715 52.1782 72.2533 52.1782V50.1782C67.2669 50.1782 63.2247 54.2204 63.2247 59.2068H65.2247ZM72.2533 52.1782C76.135 52.1782 79.2818 55.325 79.2818 59.2068H81.2818C81.2818 54.2204 77.2396 50.1782 72.2533 50.1782V52.1782Z" fill="#365EDC"/>
<ellipse cx="9.02855" cy="59.2067" rx="4.01427" ry="4.01427" stroke="#365EDC" stroke-width="2"/>
<path d="M9.02855 75.2639L8.29708 75.9457L9.02855 76.7304L9.76001 75.9457L9.02855 75.2639ZM16.0571 59.2068C16.0571 62.6227 14.1918 66.4287 12.2047 69.4816C11.2252 70.9864 10.2441 72.2665 9.50777 73.1702C9.14002 73.6215 8.83442 73.9776 8.62207 74.2195C8.51592 74.3404 8.43315 74.4326 8.37767 74.4939C8.34993 74.5245 8.32902 74.5473 8.31542 74.5621C8.30863 74.5695 8.30366 74.5749 8.30058 74.5782C8.29904 74.5799 8.29798 74.581 8.29739 74.5816C8.2971 74.582 8.29693 74.5822 8.29687 74.5822C8.29685 74.5822 8.2969 74.5822 8.29689 74.5822C8.29697 74.5821 8.29708 74.582 9.02855 75.2639C9.76001 75.9457 9.76018 75.9456 9.76039 75.9453C9.7605 75.9452 9.76073 75.945 9.76095 75.9447C9.76139 75.9443 9.76195 75.9437 9.76263 75.9429C9.76399 75.9415 9.76583 75.9395 9.76815 75.937C9.77279 75.932 9.77934 75.9249 9.78773 75.9157C9.80452 75.8975 9.82869 75.8711 9.85975 75.8368C9.92187 75.7682 10.0116 75.6682 10.125 75.539C10.3517 75.2808 10.6733 74.9059 11.0582 74.4335C11.8272 73.4898 12.8533 72.1515 13.8809 70.5726C15.9081 67.4581 18.0571 63.2356 18.0571 59.2068H16.0571ZM9.02855 75.2639C9.76001 74.582 9.76012 74.5821 9.76021 74.5822C9.76019 74.5822 9.76024 74.5822 9.76022 74.5822C9.76017 74.5822 9.75999 74.582 9.7597 74.5816C9.75912 74.581 9.75805 74.5799 9.75651 74.5782C9.75343 74.5749 9.74847 74.5695 9.74167 74.5621C9.72807 74.5473 9.70716 74.5245 9.67942 74.4939C9.62394 74.4326 9.54118 74.3404 9.43503 74.2195C9.22267 73.9776 8.91707 73.6215 8.54932 73.1702C7.81295 72.2665 6.83185 70.9864 5.85238 69.4816C3.86531 66.4287 2 62.6227 2 59.2068H0C0 63.2356 2.14896 67.4581 4.17617 70.5726C5.20383 72.1515 6.22987 73.4898 6.99885 74.4335C7.38378 74.9059 7.7054 75.2808 7.93211 75.539C8.04549 75.6682 8.13522 75.7682 8.19734 75.8368C8.22841 75.8711 8.25258 75.8975 8.26936 75.9157C8.27776 75.9249 8.2843 75.932 8.28894 75.937C8.29126 75.9395 8.29311 75.9415 8.29447 75.9429C8.29515 75.9437 8.2957 75.9443 8.29614 75.9447C8.29636 75.945 8.29659 75.9452 8.2967 75.9453C8.29691 75.9456 8.29708 75.9457 9.02855 75.2639ZM2 59.2068C2 55.325 5.14679 52.1782 9.02855 52.1782V50.1782C4.04222 50.1782 0 54.2204 0 59.2068H2ZM9.02855 52.1782C12.9103 52.1782 16.0571 55.325 16.0571 59.2068H18.0571C18.0571 54.2204 14.0149 50.1782 9.02855 50.1782V52.1782Z" fill="#365EDC"/>
<path d="M7.46379 49.1661C6.35583 44.2304 6.36874 39.1078 7.50155 34.1778C8.63437 29.2478 10.8581 24.6365 14.008 20.6856C17.1579 16.7347 21.1533 13.5454 25.6983 11.3537C27.0073 10.7225 29.8576 9.48268 31.2297 9.02832M73.0587 49.171C74.1674 44.2355 74.1553 39.1129 73.0232 34.1827C71.8911 29.2525 69.6681 24.641 66.5188 20.6896C63.3695 16.7382 59.3745 13.5483 54.8298 11.3559C53.6793 10.801 50.7612 9.44686 49.5612 9.02832" stroke="#365EDC" stroke-width="2" stroke-dasharray="5 5"/>
<path d="M41.5375 37.65C41.147 37.2595 40.5139 37.2595 40.1233 37.65L33.7594 44.014C33.3689 44.4045 33.3689 45.0377 33.7594 45.4282C34.1499 45.8187 34.7831 45.8187 35.1736 45.4282L40.8304 39.7713L46.4873 45.4282C46.8778 45.8187 47.511 45.8187 47.9015 45.4282C48.292 45.0377 48.292 44.4045 47.9015 44.014L41.5375 37.65ZM41.8304 66.457L41.8304 38.3571L39.8304 38.3571L39.8304 66.457L41.8304 66.457Z" fill="#365EDC"/>
<path d="M45.9411 71.2499C45.9411 74.0232 43.693 76.2713 40.9197 76.2713C38.1465 76.2713 35.8983 74.0232 35.8983 71.2499C35.8983 68.4767 38.1465 66.2285 40.9197 66.2285C43.693 66.2285 45.9411 68.4767 45.9411 71.2499Z" stroke="#365EDC" stroke-width="2"/>
</svg>
