<svg width="1500" height="413" viewBox="0 0 1500 413" fill="none" xmlns="http://www.w3.org/2000/svg">
<g clip-path="url(#clip0_441_2664)">
<path fill-rule="evenodd" clip-rule="evenodd" d="M188.606 0.0113136L188.5 0L188.394 0.0113136L0.893935 20.0113L0 20.1067V21.0057V391.006H2V21.9047L188.5 2.01135L375 21.9047V391.006V391.905L375.894 392L563.394 412L563.5 412.012L563.606 412L751.106 392L751 391.006H752V21.9049L938.5 2.01153L1125 21.9049V391.006V391.905L1125.89 392L1313.39 412L1313.5 412.012L1313.61 412L1501.11 392L1500.89 390.012L1313.5 410L1127 390.107V21.0059H1126L1126.11 20.0115L938.606 0.0115002L938.5 0.000186563L938.394 0.0115002L750.894 20.0115L750 20.1069V21.0059V390.107L563.5 410L377 390.107V21.0059H376L376.106 20.0113L188.606 0.0113136Z" fill="#365EDC"/>
<rect x="1498.5" y="21.5" width="1" height="369" stroke="#365EDC"/>
</g>
<defs>
<clipPath id="clip0_441_2664">
<rect width="1500" height="413" fill="white"/>
</clipPath>
</defs>
</svg>
