<svg width="110" height="110" viewBox="0 0 110 110" fill="none" xmlns="http://www.w3.org/2000/svg">
<circle cx="55" cy="55" r="48" fill="#E5E5E5" stroke="white" stroke-width="14"/>
<g filter="url(#filter0_i_426_2692)">
<path d="M9 55C9.00001 42.8 13.8464 31.0998 22.4731 22.4731C31.0998 13.8464 42.8 9 55 9C67.2 9 78.9002 13.8464 87.5269 22.4731C96.1536 31.0998 101 42.8 101 55L55 55L9 55Z" fill="#365EDC"/>
</g>
<circle cx="55" cy="55" r="34" fill="#5273E0"/>
<circle cx="55" cy="55" r="32.5" stroke="white" stroke-opacity="0.2" stroke-width="3"/>
<g opacity="0.9">
<path d="M48.5833 64.3333H46.8333C45.5447 64.3333 44.5 63.2886 44.5 61.9999V45.6666C44.5 44.3779 45.5447 43.3333 46.8333 43.3333H63.1667C64.4553 43.3333 65.5 44.3779 65.5 45.6666V61.9999C65.5 63.2886 64.4553 64.3333 63.1667 64.3333H61.4167M55 63.1666C56.933 63.1666 58.5 61.5996 58.5 59.6666C58.5 57.7336 56.933 56.1666 55 56.1666C53.067 56.1666 51.5 57.7336 51.5 59.6666C51.5 61.5996 53.067 63.1666 55 63.1666ZM55 63.1666L55.025 63.1663L51.3001 66.8912L48.0003 63.5914L51.5229 60.0688M55 63.1666L58.7249 66.8912L62.0248 63.5914L58.5021 60.0688M51.5 47.9999H58.5M49.1667 52.0833H60.8333" stroke="white" stroke-width="1.5" stroke-linecap="round" stroke-linejoin="round"/>
</g>
<defs>
<filter id="filter0_i_426_2692" x="9" y="9" width="92" height="50" filterUnits="userSpaceOnUse" color-interpolation-filters="sRGB">
<feFlood flood-opacity="0" result="BackgroundImageFix"/>
<feBlend mode="normal" in="SourceGraphic" in2="BackgroundImageFix" result="shape"/>
<feColorMatrix in="SourceAlpha" type="matrix" values="0 0 0 0 0 0 0 0 0 0 0 0 0 0 0 0 0 0 127 0" result="hardAlpha"/>
<feOffset dy="4"/>
<feGaussianBlur stdDeviation="2"/>
<feComposite in2="hardAlpha" operator="arithmetic" k2="-1" k3="1"/>
<feColorMatrix type="matrix" values="0 0 0 0 0 0 0 0 0 0 0 0 0 0 0 0 0 0 0.03 0"/>
<feBlend mode="normal" in2="shape" result="effect1_innerShadow_426_2692"/>
</filter>
</defs>
</svg>
