<svg width="110" height="110" viewBox="0 0 110 110" fill="none" xmlns="http://www.w3.org/2000/svg">
<circle cx="55" cy="55" r="48" fill="#E5E5E5" stroke="white" stroke-width="14"/>
<g filter="url(#filter0_i_426_2669)">
<path d="M9 55C9 45.9021 11.6979 37.0084 16.7524 29.4438C21.8069 21.8791 28.9912 15.9832 37.3966 12.5015C45.802 9.01991 55.051 8.10895 63.9742 9.88387C72.8973 11.6588 81.0937 16.0399 87.5269 22.4731C93.9601 28.9063 98.3412 37.1027 100.116 46.0258C101.891 54.949 100.98 64.198 97.4985 72.6034C94.0168 81.0088 88.1209 88.1931 80.5562 93.2476C72.9916 98.3021 64.0979 101 55 101L55 55L9 55Z" fill="#365EDC"/>
</g>
<circle cx="55" cy="55" r="34" fill="#5273E0"/>
<circle cx="55" cy="55" r="32.5" stroke="white" stroke-opacity="0.2" stroke-width="3"/>
<g opacity="0.9">
<path d="M56.7844 50.7438C56.1166 51.2199 55.2993 51.4999 54.4167 51.4999C52.1615 51.4999 50.3333 49.6717 50.3333 47.4166C50.3333 45.1614 52.1615 43.3333 54.4167 43.3333C55.8785 43.3333 57.1609 44.1014 57.8823 45.2561M48 64.4349H51.0453C51.4424 64.4349 51.837 64.4822 52.222 64.5767L55.4397 65.3586C56.1379 65.5287 56.8652 65.5452 57.5707 65.4082L61.1285 64.7161C62.0683 64.533 62.9329 64.0829 63.6104 63.4238L66.1275 60.9752C66.8464 60.2772 66.8464 59.1444 66.1275 58.4452C65.4804 57.8156 64.4555 57.7447 63.7233 58.2786L60.7897 60.4189C60.3696 60.726 59.8584 60.8914 59.3326 60.8914H56.4998L58.3029 60.8913C59.3192 60.8913 60.1425 60.0905 60.1425 59.1018V58.7439C60.1425 57.923 59.5682 57.2072 58.7498 57.0088L55.9667 56.332C55.5138 56.2221 55.0499 56.1666 54.5837 56.1666C53.4581 56.1666 51.4206 57.0985 51.4206 57.0985L48 58.5289M64.3333 48.5833C64.3333 50.8384 62.5052 52.6666 60.25 52.6666C57.9948 52.6666 56.1667 50.8384 56.1667 48.5833C56.1667 46.3281 57.9948 44.4999 60.25 44.4999C62.5052 44.4999 64.3333 46.3281 64.3333 48.5833ZM43.3333 58.0333L43.3333 64.7999C43.3333 65.4533 43.3333 65.78 43.4605 66.0296C43.5724 66.2491 43.7508 66.4276 43.9704 66.5394C44.2199 66.6666 44.5466 66.6666 45.2 66.6666H46.1333C46.7867 66.6666 47.1134 66.6666 47.363 66.5394C47.5825 66.4276 47.761 66.2491 47.8729 66.0296C48 65.78 48 65.4533 48 64.7999V58.0333C48 57.3799 48 57.0532 47.8729 56.8036C47.761 56.5841 47.5825 56.4056 47.363 56.2937C47.1134 56.1666 46.7867 56.1666 46.1333 56.1666L45.2 56.1666C44.5466 56.1666 44.2199 56.1666 43.9704 56.2937C43.7508 56.4056 43.5724 56.5841 43.4605 56.8036C43.3333 57.0532 43.3333 57.3799 43.3333 58.0333Z" stroke="white" stroke-width="1.5" stroke-linecap="round" stroke-linejoin="round"/>
</g>
<defs>
<filter id="filter0_i_426_2669" x="9" y="9" width="92" height="96" filterUnits="userSpaceOnUse" color-interpolation-filters="sRGB">
<feFlood flood-opacity="0" result="BackgroundImageFix"/>
<feBlend mode="normal" in="SourceGraphic" in2="BackgroundImageFix" result="shape"/>
<feColorMatrix in="SourceAlpha" type="matrix" values="0 0 0 0 0 0 0 0 0 0 0 0 0 0 0 0 0 0 127 0" result="hardAlpha"/>
<feOffset dy="4"/>
<feGaussianBlur stdDeviation="2"/>
<feComposite in2="hardAlpha" operator="arithmetic" k2="-1" k3="1"/>
<feColorMatrix type="matrix" values="0 0 0 0 0 0 0 0 0 0 0 0 0 0 0 0 0 0 0.03 0"/>
<feBlend mode="normal" in2="shape" result="effect1_innerShadow_426_2669"/>
</filter>
</defs>
</svg>
