<svg width="110" height="110" viewBox="0 0 110 110" fill="none" xmlns="http://www.w3.org/2000/svg">
<circle cx="55" cy="55" r="48" fill="#E5E5E5" stroke="white" stroke-width="14"/>
<g filter="url(#filter0_i_426_2696)">
<circle cx="55" cy="55" r="46" transform="rotate(-180 55 55)" fill="#365EDC"/>
</g>
<circle cx="55" cy="55" r="34" fill="#5273E0"/>
<circle cx="55" cy="55" r="32.5" stroke="white" stroke-opacity="0.2" stroke-width="3"/>
<g opacity="0.9">
<path d="M64.3333 55.5835V48.9335C64.3333 46.9733 64.3333 45.9932 63.9518 45.2445C63.6163 44.586 63.0809 44.0505 62.4223 43.715C61.6736 43.3335 60.6935 43.3335 58.7333 43.3335H51.2667C49.3065 43.3335 48.3264 43.3335 47.5777 43.715C46.9191 44.0505 46.3837 44.586 46.0481 45.2445C45.6667 45.9932 45.6667 46.9733 45.6667 48.9335V61.0668C45.6667 63.027 45.6667 64.0071 46.0481 64.7558C46.3837 65.4144 46.9191 65.9498 47.5777 66.2854C48.3264 66.6668 49.3065 66.6668 51.2667 66.6668H55M57.3333 53.8335H50.3333M52.6667 58.5002H50.3333M59.6667 49.1668H50.3333M57.9167 63.1668L60.25 65.5002L65.5 60.2502" stroke="white" stroke-width="1.5" stroke-linecap="round" stroke-linejoin="round"/>
</g>
<defs>
<filter id="filter0_i_426_2696" x="9" y="9" width="92" height="96" filterUnits="userSpaceOnUse" color-interpolation-filters="sRGB">
<feFlood flood-opacity="0" result="BackgroundImageFix"/>
<feBlend mode="normal" in="SourceGraphic" in2="BackgroundImageFix" result="shape"/>
<feColorMatrix in="SourceAlpha" type="matrix" values="0 0 0 0 0 0 0 0 0 0 0 0 0 0 0 0 0 0 127 0" result="hardAlpha"/>
<feOffset dy="4"/>
<feGaussianBlur stdDeviation="2"/>
<feComposite in2="hardAlpha" operator="arithmetic" k2="-1" k3="1"/>
<feColorMatrix type="matrix" values="0 0 0 0 0 0 0 0 0 0 0 0 0 0 0 0 0 0 0.03 0"/>
<feBlend mode="normal" in2="shape" result="effect1_innerShadow_426_2696"/>
</filter>
</defs>
</svg>
