<svg width="386" height="83" viewBox="0 0 386 83" fill="none" xmlns="http://www.w3.org/2000/svg">
<path d="M384.534 81.7838C384.81 81.7838 385.034 81.5599 385.034 81.2838L385.034 76.7838C385.034 76.5076 384.81 76.2838 384.534 76.2838C384.258 76.2838 384.034 76.5076 384.034 76.7838V80.7838H380.034C379.758 80.7838 379.534 81.0076 379.534 81.2838C379.534 81.5599 379.758 81.7838 380.034 81.7838L384.534 81.7838ZM296.392 22.258L296.584 21.7964L296.584 21.7964L296.392 22.258ZM192.553 1.33443L192.554 0.834427L192.554 0.834427L192.553 1.33443ZM88.825 21.6985L88.6345 21.2362L88.6345 21.2362L88.825 21.6985ZM1.35355 80.6036C1.70081 80.2563 2.04897 79.91 2.39803 79.5648L1.69481 78.8538C1.34445 79.2004 0.994993 79.5479 0.646447 79.8964L1.35355 80.6036ZM4.50361 77.5049C5.2094 76.822 5.91876 76.1431 6.63165 75.4683L5.9442 74.742C5.22865 75.4194 4.51665 76.1008 3.80823 76.7863L4.50361 77.5049ZM8.78189 73.4551C9.50247 72.7878 10.2265 72.1247 10.9541 71.4656L10.2827 70.7245C9.55248 71.386 8.82571 72.0516 8.10245 72.7214L8.78189 73.4551ZM13.1481 69.5C13.8831 68.8487 14.6216 68.2016 15.3635 67.5586L14.7086 66.8029C13.9639 67.4483 13.2227 68.0978 12.4849 68.7515L13.1481 69.5ZM17.6 65.6416C18.3492 65.0066 19.1016 64.3758 19.8575 63.7493L19.2193 62.9794C18.4606 63.6083 17.7053 64.2414 16.9534 64.8788L17.6 65.6416ZM22.1355 61.8819C22.8983 61.2635 23.6645 60.6494 24.4339 60.0395L23.8127 59.2559C23.0405 59.868 22.2715 60.4844 21.5058 61.105L22.1355 61.8819ZM26.7523 58.2225C27.5285 57.6211 28.3079 57.0239 29.0906 56.4311L28.4867 55.6339C27.7012 56.229 26.9189 56.8284 26.1398 57.4321L26.7523 58.2225ZM31.4483 54.6653C32.2375 54.081 33.0298 53.5011 33.8253 52.9256L33.2391 52.1154C32.4407 52.6931 31.6454 53.2752 30.8533 53.8616L31.4483 54.6653ZM36.2212 51.2119C37.023 50.6451 37.8279 50.0827 38.6358 49.5247L38.0675 48.7019C37.2566 49.2619 36.4487 49.8265 35.6439 50.3954L36.2212 51.2119ZM41.0687 47.8641C41.8827 47.315 42.6997 46.7703 43.5196 46.2302L42.9695 45.3951C42.1465 45.9373 41.3265 46.4839 40.5094 47.0351L41.0687 47.8641ZM45.9884 44.6233C46.8142 44.0922 47.6429 43.5656 48.4746 43.0435L47.9429 42.1966C47.1082 42.7206 46.2763 43.2491 45.4474 43.7822L45.9884 44.6233ZM50.9779 41.4911C51.8152 40.9782 52.6553 40.4699 53.4982 39.9662L52.9852 39.1078C52.1392 39.6134 51.2959 40.1236 50.4556 40.6384L50.9779 41.4911ZM56.035 38.469C56.8832 37.9747 57.7342 37.4849 58.588 36.9998L58.094 36.1303C57.237 36.6173 56.3828 37.1089 55.5315 37.6051L56.035 38.469ZM61.157 35.5586C62.0158 35.0829 62.8774 34.6119 63.7416 34.1456L63.2667 33.2655C62.3993 33.7336 61.5345 34.2063 60.6725 34.6838L61.157 35.5586ZM66.3416 32.761C67.2106 32.3043 68.0823 31.8523 68.9565 31.405L68.5011 30.5147C67.6235 30.9637 66.7486 31.4174 65.8764 31.8758L66.3416 32.761ZM71.5862 30.0777C72.4651 29.6401 73.3464 29.2073 74.2303 28.7792L73.7945 27.8792C72.9073 28.3089 72.0226 28.7433 71.1405 29.1825L71.5862 30.0777ZM76.8885 27.5098C77.7766 27.0917 78.6673 26.6783 79.5603 26.2697L79.1443 25.3603C78.2479 25.7704 77.354 26.1854 76.4625 26.6051L76.8885 27.5098ZM82.2455 25.0588C83.1426 24.6602 84.042 24.2664 84.9438 23.8774L84.5478 22.9592C83.6426 23.3496 82.7398 23.7449 81.8394 24.145L82.2455 25.0588ZM87.6549 22.7257C88.1079 22.5362 88.5613 22.3479 89.0154 22.1608L88.6345 21.2362C88.1787 21.424 87.7236 21.6129 87.269 21.8031L87.6549 22.7257ZM89.0154 22.1608C89.4701 21.9735 89.9253 21.7874 90.3809 21.6026L90.005 20.676C89.5477 20.8614 89.0909 21.0482 88.6345 21.2362L89.0154 22.1608ZM93.1205 20.5089C94.0359 20.1493 94.953 19.7948 95.8719 19.4453L95.5164 18.5107C94.5941 18.8614 93.6736 19.2172 92.7548 19.5782L93.1205 20.5089ZM98.6347 18.412C99.5578 18.0725 100.482 17.7381 101.409 17.4089L101.074 16.4666C100.144 16.7971 99.216 17.1327 98.2896 17.4734L98.6347 18.412ZM104.194 16.4362C105.124 16.1171 106.056 15.803 106.989 15.4942L106.675 14.5448C105.738 14.8548 104.803 15.17 103.869 15.4904L104.194 16.4362ZM109.795 14.5827C110.732 14.284 111.67 13.9905 112.61 13.7021L112.317 12.7461C111.373 13.0355 110.431 13.3302 109.491 13.63L109.795 14.5827ZM115.435 12.8523C116.378 12.5742 117.323 12.3013 118.269 12.0335L117.997 11.0713C117.047 11.3401 116.099 11.614 115.152 11.8932L115.435 12.8523ZM121.112 11.2458C122.061 10.9884 123.011 10.7362 123.963 10.4892L123.712 9.52131C122.756 9.7692 121.802 10.0223 120.85 10.2807L121.112 11.2458ZM126.822 9.76391C127.776 9.52733 128.732 9.29599 129.689 9.06988L129.459 8.09668C128.499 8.32362 127.539 8.55582 126.581 8.79328L126.822 9.76391ZM132.564 8.40725C133.523 8.19162 134.483 7.98123 135.445 7.7761L135.237 6.7981C134.271 7.00399 133.307 7.21516 132.344 7.43159L132.564 8.40725ZM138.333 7.17649C139.297 6.98189 140.262 6.79255 141.228 6.60849L141.041 5.62616C140.071 5.81091 139.103 6.00095 138.135 6.19627L138.333 7.17649ZM144.129 6.07216C145.097 5.89867 146.065 5.73047 147.035 5.56756L146.87 4.58137C145.896 4.74489 144.924 4.91372 143.952 5.08785L144.129 6.07216ZM149.947 5.09474C150.918 4.94245 151.891 4.79545 152.864 4.65375L152.72 3.66419C151.743 3.80641 150.767 3.95395 149.792 4.1068L149.947 5.09474ZM155.785 4.24466C156.759 4.11363 157.735 3.98791 158.711 3.8675L158.588 2.87502C157.609 2.99588 156.63 3.12206 155.652 3.25358L155.785 4.24466ZM161.64 3.5223C162.617 3.41258 163.595 3.30818 164.573 3.2091L164.473 2.21419C163.491 2.31363 162.509 2.41842 161.529 2.52854L161.64 3.5223ZM167.51 2.92794C168.489 2.83958 169.469 2.75654 170.449 2.67884L170.37 1.68197C169.386 1.75996 168.403 1.8433 167.42 1.93199L167.51 2.92794ZM173.391 2.46183C174.372 2.39485 175.353 2.33322 176.335 2.27692L176.278 1.27856C175.293 1.33506 174.308 1.39693 173.323 1.46415L173.391 2.46183ZM179.281 2.12414C180.263 2.07858 181.246 2.03837 182.229 2.0035L182.193 1.00413C181.207 1.03913 180.221 1.07949 179.235 1.12522L179.281 2.12414ZM185.177 1.91501C186.16 1.89088 187.143 1.87209 188.126 1.85866L188.113 0.858758C187.126 0.872235 186.139 0.891089 185.153 0.915312L185.177 1.91501ZM191.076 1.83447C191.568 1.83311 192.06 1.8331 192.551 1.83442L192.554 0.834427C192.061 0.833097 191.567 0.833112 191.073 0.834471L191.076 1.83447ZM192.551 1.83442C193.044 1.83575 193.537 1.83843 194.03 1.84244L194.038 0.842476C193.543 0.838444 193.049 0.835761 192.554 0.834427L192.551 1.83442ZM196.985 1.88268C197.97 1.90147 198.955 1.92564 199.94 1.95518L199.97 0.955625C198.982 0.925982 197.993 0.901725 197.004 0.882862L196.985 1.88268ZM202.894 2.05992C203.879 2.10021 204.863 2.14587 205.846 2.19688L205.898 1.19822C204.911 1.14702 203.923 1.10119 202.935 1.06075L202.894 2.05992ZM208.798 2.36606C209.781 2.42783 210.764 2.49495 211.747 2.56742L211.82 1.57013C210.834 1.4974 209.847 1.43002 208.86 1.36803L208.798 2.36606ZM214.693 2.80094C215.675 2.88414 216.656 2.97268 217.637 3.06656L217.732 2.07111C216.748 1.97689 215.763 1.88801 214.778 1.80451L214.693 2.80094ZM220.578 3.36427C221.558 3.46886 222.537 3.57878 223.515 3.69402L223.632 2.70088C222.65 2.58522 221.667 2.47489 220.684 2.36992L220.578 3.36427ZM226.449 4.05576C227.426 4.18168 228.403 4.31291 229.378 4.44945L229.517 3.4591C228.538 3.32206 227.557 3.19034 226.577 3.06396L226.449 4.05576ZM232.303 4.87503C233.278 5.02221 234.251 5.17469 235.224 5.33246L235.384 4.34536C234.408 4.18701 233.431 4.03397 232.453 3.88625L232.303 4.87503ZM238.139 5.82166C239.109 5.99001 240.079 6.16366 241.048 6.34257L241.23 5.3592C240.257 5.17962 239.284 5.00534 238.31 4.83636L238.139 5.82166ZM243.952 6.89513C244.919 7.08458 245.885 7.2793 246.849 7.47927L247.052 6.50008C246.084 6.29937 245.115 6.10394 244.144 5.91379L243.952 6.89513ZM249.741 8.09491C250.703 8.30536 251.664 8.52105 252.625 8.74198L252.849 7.76744C251.885 7.5457 250.92 7.32921 249.954 7.11799L249.741 8.09491ZM255.502 9.42039C256.459 9.65173 257.416 9.88829 258.371 10.1301L258.616 9.16064C257.658 8.91797 256.698 8.68054 255.736 8.44835L255.502 9.42039ZM261.233 10.8709C262.185 11.123 263.136 11.3803 264.086 11.6428L264.352 10.6789C263.399 10.4155 262.444 10.1572 261.488 9.9042L261.233 10.8709ZM266.93 12.4457C267.877 12.7184 268.822 12.9964 269.766 13.2795L270.054 12.3216C269.106 12.0375 268.157 11.7585 267.207 11.4848L266.93 12.4457ZM272.593 14.144C273.533 14.4373 274.472 14.7357 275.41 15.0392L275.718 14.0879C274.777 13.7832 273.834 13.4837 272.891 13.1894L272.593 14.144ZM278.217 15.9651C279.151 16.2787 280.083 16.5974 281.014 16.9213L281.343 15.9769C280.408 15.6518 279.473 15.3319 278.535 15.0171L278.217 15.9651ZM283.8 17.9079C284.727 18.2417 285.652 18.5807 286.576 18.9247L286.925 17.9876C285.998 17.6423 285.069 17.3021 284.139 16.9671L283.8 17.9079ZM289.34 19.9715C290.259 20.3254 291.177 20.6843 292.093 21.0483L292.462 20.119C291.543 19.7537 290.622 19.3934 289.699 19.0383L289.34 19.9715ZM294.834 22.155C295.289 22.3419 295.745 22.5301 296.2 22.7196L296.584 21.7964C296.128 21.6062 295.67 21.4174 295.213 21.2297L294.834 22.155ZM296.2 22.7196C296.655 22.9093 297.11 23.1002 297.565 23.2923L297.954 22.3713C297.498 22.1784 297.041 21.9868 296.584 21.7964L296.2 22.7196ZM300.285 24.4599C301.189 24.8541 302.092 25.2532 302.992 25.657L303.401 24.7446C302.498 24.3393 301.592 23.9388 300.684 23.5432L300.285 24.4599ZM305.686 26.8834C306.582 27.2972 307.475 27.7158 308.366 28.1391L308.795 27.2358C307.901 26.8109 307.004 26.3909 306.105 25.9756L305.686 26.8834ZM311.033 29.4238C311.92 29.8569 312.804 30.2948 313.686 30.7374L314.134 29.8437C313.249 29.3995 312.362 28.96 311.472 28.5253L311.033 29.4238ZM316.324 32.0798C317.201 32.5321 318.075 32.9891 318.947 33.4507L319.415 32.567C318.54 32.1036 317.662 31.645 316.782 31.191L316.324 32.0798ZM321.556 34.8501C322.423 35.3213 323.287 35.7972 324.149 36.2777L324.636 35.4043C323.771 34.922 322.903 34.4444 322.033 33.9715L321.556 34.8501ZM326.726 37.7333C327.583 38.2233 328.436 38.7178 329.288 39.2169L329.793 38.3543C328.939 37.8534 328.082 37.357 327.223 36.8653L326.726 37.7333ZM331.833 40.7282C332.678 41.2366 333.521 41.7495 334.361 42.267L334.886 41.4156C334.043 40.8962 333.197 40.3814 332.348 39.8711L331.833 40.7282ZM336.873 43.8332C337.708 44.3599 338.539 44.891 339.368 45.4266L339.911 44.5868C339.079 44.0492 338.244 43.5161 337.407 42.9876L336.873 43.8332ZM341.845 47.047C342.668 47.5916 343.487 48.1406 344.304 48.6941L344.865 47.8663C344.045 47.3107 343.223 46.7597 342.397 46.2131L341.845 47.047ZM346.746 50.3679C347.556 50.9302 348.364 51.4969 349.169 52.068L349.748 51.2525C348.94 50.6793 348.129 50.1105 347.316 49.5462L346.746 50.3679ZM351.573 53.7943C352.372 54.3741 353.167 54.9582 353.959 55.5467L354.555 54.744C353.76 54.1533 352.962 53.5671 352.161 52.9852L351.573 53.7943ZM356.326 57.3248C357.111 57.9217 357.893 58.5229 358.673 59.1284L359.286 58.3388C358.504 57.7311 357.719 57.1277 356.931 56.5286L356.326 57.3248ZM361 60.9574C361.772 61.5712 362.541 62.1893 363.307 62.8116L363.938 62.0355C363.169 61.4109 362.397 60.7906 361.622 60.1746L361 60.9574ZM365.594 64.6907C366.353 65.3211 367.109 65.9557 367.861 66.5945L368.508 65.8323C367.753 65.1911 366.995 64.5542 366.233 63.9215L365.594 64.6907ZM370.107 68.5228C370.852 69.1695 371.594 69.8204 372.332 70.4754L372.995 69.7274C372.254 69.07 371.51 68.4167 370.762 67.7676L370.107 68.5228ZM374.535 72.452C375.266 73.1146 375.993 73.7814 376.717 74.4522L377.397 73.7188C376.67 73.0455 375.94 72.3763 375.207 71.7112L374.535 72.452ZM378.877 76.4761C379.593 77.1544 380.306 77.8368 381.015 78.5232L381.711 77.8047C380.999 77.1158 380.284 76.4309 379.565 75.7501L378.877 76.4761ZM383.131 80.5935C383.481 80.9404 383.831 81.2884 384.18 81.6373L384.887 80.9302C384.537 80.58 384.186 80.2308 383.834 79.8825L383.131 80.5935ZM384.534 82.2838C385.086 82.2838 385.534 81.8361 385.534 81.2838V72.2838C385.534 71.7315 385.086 71.2838 384.534 71.2838C383.981 71.2838 383.534 71.7315 383.534 72.2838L383.534 80.2838L375.534 80.2838C374.981 80.2838 374.534 80.7315 374.534 81.2838C374.534 81.8361 374.981 82.2838 375.534 82.2838H384.534ZM296.392 22.258L296.776 21.3348L296.776 21.3348L296.392 22.258ZM192.553 1.33443L192.555 0.334429L192.555 0.334429L192.553 1.33443ZM88.825 21.6985L88.444 20.7739L88.444 20.7739L88.825 21.6985ZM1.70711 80.9571C2.05371 80.6105 2.40122 80.2649 2.74963 79.9203L1.3432 78.4983C0.99219 78.8455 0.642087 79.1937 0.292893 79.5429L1.70711 80.9571ZM4.8513 77.8642C5.55577 77.1826 6.26381 76.5049 6.97538 75.8314L5.60047 74.3789C4.8836 75.0575 4.17028 75.7402 3.46055 76.4269L4.8513 77.8642ZM9.12162 73.8219C9.84085 73.1559 10.5636 72.494 11.2898 71.8362L9.94706 70.3539C9.21545 71.0166 8.48733 71.6835 7.76273 72.3545L9.12162 73.8219ZM13.4797 69.8742C14.2134 69.2241 14.9505 68.5782 15.691 67.9364L14.3811 66.4251C13.6351 67.0716 12.8925 67.7224 12.1533 68.3773L13.4797 69.8742ZM17.9233 66.023C18.6711 65.3892 19.4222 64.7596 20.1766 64.1342L18.9002 62.5945C18.1401 63.2245 17.3834 63.8588 16.6301 64.4974L17.9233 66.023ZM22.4504 62.2703C23.2118 61.6531 23.9765 61.0401 24.7445 60.4314L23.5021 58.864C22.7284 59.4773 21.958 60.0948 21.1909 60.7166L22.4504 62.2703ZM27.0586 58.6178C27.8333 58.0174 28.6113 57.4214 29.3925 56.8296L28.1848 55.2354C27.3978 55.8315 26.6141 56.432 25.8335 57.0369L27.0586 58.6178ZM31.7458 55.0672C32.5335 54.484 33.3244 53.9051 34.1184 53.3306L32.946 51.7103C32.1461 52.2891 31.3493 52.8722 30.5557 53.4598L31.7458 55.0672ZM36.5098 51.6202C37.3101 51.0544 38.1135 50.4931 38.9199 49.9361L37.7833 48.2905C36.9709 48.8516 36.1616 49.4171 35.3553 49.9871L36.5098 51.6202ZM41.3483 48.2786C42.1608 47.7305 42.9762 47.1869 43.7947 46.6477L42.6945 44.9776C41.8699 45.5207 41.0484 46.0684 40.2298 46.6206L41.3483 48.2786ZM46.2588 45.0438C47.0831 44.5137 47.9103 43.9881 48.7404 43.467L47.6771 41.7731C46.8408 42.2981 46.0074 42.8276 45.177 43.3617L46.2588 45.0438ZM51.2391 41.9175C52.0748 41.4056 52.9133 40.8982 53.7547 40.3954L52.7287 38.6786C51.8811 39.1851 51.0363 39.6963 50.1944 40.212L51.2391 41.9175ZM56.2868 38.901C57.1334 38.4076 57.9829 37.9187 58.835 37.4345L57.847 35.6956C56.9884 36.1835 56.1327 36.676 55.2797 37.1731L56.2868 38.901ZM61.3992 35.996C62.2565 35.5212 63.1164 35.0511 63.9791 34.5856L63.0293 32.8255C62.1603 33.2944 61.2939 33.7681 60.4303 34.2464L61.3992 35.996ZM66.5742 33.2036C67.4416 32.7478 68.3116 32.2966 69.1843 31.8501L68.2733 30.0696C67.3942 30.5194 66.5176 30.974 65.6438 31.4332L66.5742 33.2036ZM71.8091 30.5253C72.6863 30.0885 73.566 29.6565 74.4483 29.2292L73.5765 27.4292C72.6877 27.8597 71.8014 28.2949 70.9177 28.7349L71.8091 30.5253ZM77.1015 27.9622C77.988 27.5448 78.8769 27.1322 79.7683 26.7243L78.9362 24.9056C78.0382 25.3165 77.1426 25.7322 76.2495 26.1527L77.1015 27.9622ZM82.4486 25.5157C83.3439 25.1179 84.2417 24.7248 85.1419 24.3366L84.3498 22.5001C83.4429 22.8912 82.5385 23.2872 81.6364 23.6881L82.4486 25.5157ZM87.8479 23.1869C88.3 22.9978 88.7526 22.8098 89.2059 22.6231L88.444 20.7739C87.9874 20.962 87.5314 21.1513 87.076 21.3419L87.8479 23.1869ZM89.2059 22.6231C89.6597 22.4361 90.114 22.2504 90.5688 22.066L89.8171 20.2126C89.359 20.3984 88.9013 20.5855 88.444 20.7739L89.2059 22.6231ZM93.3033 20.9743C94.217 20.6154 95.1324 20.2615 96.0496 19.9127L95.3387 18.0433C94.4147 18.3947 93.4925 18.7512 92.572 19.1128L93.3033 20.9743ZM98.8073 18.8812C99.7286 18.5424 100.652 18.2086 101.576 17.88L100.906 15.9955C99.975 16.3266 99.0451 16.6628 98.117 17.0042L98.8073 18.8812ZM104.356 16.9092C105.285 16.5906 106.215 16.2771 107.146 15.9688L106.518 14.0701C105.579 14.3807 104.642 14.6965 103.707 15.0174L104.356 16.9092ZM109.947 15.0591C110.882 14.761 111.819 14.4679 112.757 14.1801L112.17 12.2681C111.225 12.558 110.281 12.8532 109.339 13.1536L109.947 15.0591ZM115.576 13.3319C116.518 13.0543 117.461 12.7819 118.405 12.5147L117.86 10.5902C116.909 10.8595 115.959 11.1339 115.011 11.4136L115.576 13.3319ZM121.242 11.7284C122.19 11.4715 123.138 11.2197 124.088 10.9732L123.586 9.03734C122.629 9.28569 121.673 9.53928 120.719 9.79812L121.242 11.7284ZM126.942 10.2492C127.895 10.0131 128.849 9.78217 129.804 9.55648L129.344 7.61008C128.382 7.83744 127.421 8.07007 126.461 8.30796L126.942 10.2492ZM132.673 8.89508C133.631 8.67985 134.59 8.46985 135.549 8.2651L135.132 6.3091C134.165 6.51537 133.199 6.72693 132.235 6.94377L132.673 8.89508ZM138.432 7.6666C139.394 7.47236 140.358 7.28337 141.322 7.09965L140.947 5.135C139.976 5.32009 139.006 5.51048 138.037 5.70616L138.432 7.6666ZM144.217 6.56431C145.183 6.39115 146.15 6.22326 147.118 6.06065L146.787 4.08828C145.812 4.25211 144.837 4.42124 143.864 4.59569L144.217 6.56431ZM150.024 5.5887C150.994 5.43669 151.964 5.28997 152.936 5.14853L152.648 3.1694C151.669 3.31189 150.691 3.4597 149.715 3.61284L150.024 5.5887ZM155.852 4.7402C156.824 4.60941 157.798 4.48392 158.772 4.36373L158.527 2.37878C157.546 2.49986 156.565 2.62628 155.585 2.75804L155.852 4.7402ZM161.696 4.01917C162.671 3.90966 163.647 3.80545 164.624 3.70656L164.422 1.71673C163.438 1.81636 162.455 1.92134 161.473 2.03167L161.696 4.01917ZM167.555 3.42592C168.532 3.33772 169.51 3.25484 170.489 3.17728L170.331 1.18353C169.345 1.26166 168.36 1.34516 167.375 1.43401L167.555 3.42592ZM173.425 2.96067C174.404 2.89382 175.384 2.83229 176.364 2.7761L176.249 0.779382C175.262 0.835988 174.275 0.897968 173.289 0.965314L173.425 2.96067ZM179.305 2.6236C180.285 2.57813 181.265 2.53799 182.246 2.50319L182.176 0.504447C181.187 0.539504 180.199 0.579942 179.212 0.625753L179.305 2.6236ZM185.189 2.41486C186.17 2.39077 187.152 2.37202 188.133 2.35862L188.106 0.358804C187.117 0.372306 186.129 0.391195 185.14 0.415463L185.189 2.41486ZM191.078 2.33447C191.568 2.33311 192.059 2.3331 192.55 2.33442L192.555 0.334429C192.061 0.333096 191.566 0.333111 191.072 0.334473L191.078 2.33447ZM192.55 2.33442C193.042 2.33575 193.534 2.33842 194.025 2.34243L194.042 0.342493C193.546 0.338453 193.051 0.335765 192.555 0.334429L192.55 2.33442ZM196.976 2.38259C197.959 2.40135 198.942 2.42547 199.925 2.45495L199.985 0.45585C198.995 0.426153 198.004 0.401851 197.014 0.382953L196.976 2.38259ZM202.873 2.5595C203.856 2.59972 204.839 2.64529 205.821 2.69621L205.924 0.698895C204.935 0.647598 203.945 0.601686 202.955 0.56117L202.873 2.5595ZM208.766 2.86508C209.748 2.92673 210.729 2.99373 211.71 3.06607L211.857 1.07149C210.869 0.998616 209.881 0.931122 208.892 0.869012L208.766 2.86508ZM214.651 3.29915C215.631 3.3822 216.611 3.47058 217.589 3.56429L217.78 1.57339C216.794 1.47899 215.807 1.38995 214.82 1.30629L214.651 3.29915ZM220.525 3.86145C221.503 3.96584 222.48 4.07556 223.457 4.19059L223.691 2.20432C222.707 2.08844 221.722 1.97791 220.737 1.87275L220.525 3.86145ZM226.385 4.55166C227.36 4.67735 228.335 4.80834 229.309 4.94463L229.586 2.96392C228.605 2.82663 227.623 2.69467 226.64 2.56806L226.385 4.55166ZM232.229 5.36942C233.201 5.51633 234.173 5.66853 235.144 5.82601L235.464 3.85181C234.486 3.69317 233.507 3.53985 232.527 3.39186L232.229 5.36942ZM238.053 6.3143C239.022 6.48235 239.99 6.65567 240.957 6.83426L241.321 4.86751C240.346 4.68761 239.371 4.513 238.395 4.34372L238.053 6.3143ZM243.856 7.3858C244.821 7.5749 245.785 7.76926 246.748 7.96886L247.154 6.01049C246.184 5.80941 245.213 5.61362 244.24 5.42312L243.856 7.3858ZM249.634 8.58337C250.594 8.79343 251.554 9.00873 252.513 9.22925L252.961 7.28017C251.995 7.05802 251.029 6.84114 250.061 6.62953L249.634 8.58337ZM255.384 9.90641C256.34 10.1373 257.295 10.3734 258.248 10.6148L258.739 8.67592C257.779 8.43281 256.817 8.19494 255.854 7.96233L255.384 9.90641ZM261.105 11.3543C262.055 11.6059 263.005 11.8627 263.953 12.1247L264.485 10.197C263.53 9.93306 262.574 9.67434 261.616 9.42084L261.105 11.3543ZM266.792 12.9261C267.737 13.1984 268.68 13.4758 269.623 13.7584L270.197 11.8427C269.248 11.558 268.298 11.2786 267.346 11.0043L266.792 12.9261ZM272.444 14.6214C273.383 14.9141 274.32 15.2119 275.256 15.5149L275.872 13.6122C274.929 13.307 273.985 13.0069 273.039 12.712L272.444 14.6214ZM278.058 16.439C278.99 16.7521 279.921 17.0702 280.85 17.3935L281.507 15.5046C280.571 15.179 279.634 14.8584 278.695 14.5431L278.058 16.439ZM283.631 18.3783C284.556 18.7115 285.479 19.0498 286.401 19.3932L287.099 17.519C286.171 17.1731 285.241 16.8323 284.309 16.4967L283.631 18.3783ZM289.16 20.4381C290.078 20.7913 290.994 21.1496 291.908 21.513L292.647 19.6544C291.726 19.2884 290.803 18.9275 289.879 18.5716L289.16 20.4381ZM294.644 22.6176C295.099 22.8042 295.553 22.992 296.007 23.1811L296.776 21.3348C296.319 21.1443 295.861 20.9551 295.403 20.7671L294.644 22.6176ZM296.007 23.1811C296.462 23.3705 296.916 23.5611 297.37 23.7529L298.149 21.9108C297.692 21.7176 297.234 21.5256 296.776 21.3348L296.007 23.1811ZM300.085 24.9183C300.988 25.3118 301.889 25.7101 302.787 26.1132L303.606 24.2885C302.701 23.8824 301.794 23.4812 300.884 23.0848L300.085 24.9183ZM305.476 27.3374C306.37 27.7504 307.262 28.1682 308.152 28.5907L309.01 26.7842C308.114 26.3585 307.216 25.9377 306.315 25.5216L305.476 27.3374ZM310.814 29.8731C311.699 30.3054 312.581 30.7425 313.461 31.1843L314.359 29.3969C313.472 28.9518 312.583 28.5115 311.691 28.076L310.814 29.8731ZM316.095 32.5242C316.97 32.9756 317.843 33.4318 318.713 33.8926L319.649 32.1251C318.773 31.6609 317.893 31.2014 317.011 30.7466L316.095 32.5242ZM321.317 35.2894C322.182 35.7597 323.045 36.2347 323.905 36.7144L324.879 34.9676C324.013 34.4844 323.144 34.006 322.272 33.5322L321.317 35.2894ZM326.478 38.1674C327.333 38.6564 328.185 39.15 329.035 39.6482L330.046 37.923C329.191 37.4211 328.332 36.9239 327.471 36.4313L326.478 38.1674ZM331.575 41.1567C332.419 41.6642 333.261 42.1762 334.099 42.6927L335.148 40.9899C334.303 40.4696 333.456 39.9538 332.606 39.4426L331.575 41.1567ZM336.606 44.2561C337.439 44.7817 338.269 45.3119 339.096 45.8465L340.182 44.1669C339.349 43.6283 338.513 43.0943 337.674 42.5647L336.606 44.2561ZM341.569 47.4639C342.39 48.0075 343.209 48.5556 344.024 49.108L345.146 47.4524C344.324 46.8958 343.5 46.3437 342.673 45.7961L341.569 47.4639ZM346.461 50.7787C347.27 51.34 348.076 51.9057 348.879 52.4757L350.037 50.8448C349.228 50.2705 348.416 49.7007 347.601 49.1353L346.461 50.7787ZM351.28 54.1989C352.076 54.7776 352.87 55.3607 353.661 55.948L354.854 54.3426C354.057 53.7509 353.258 53.1636 352.455 52.5806L351.28 54.1989ZM356.023 57.7229C356.807 58.3187 357.588 58.9188 358.366 59.5232L359.593 57.944C358.81 57.3352 358.023 56.7307 357.233 56.1305L356.023 57.7229ZM360.689 61.3489C361.46 61.9616 362.228 62.5785 362.992 63.1997L364.253 61.6475C363.483 61.0218 362.71 60.4003 361.933 59.7831L360.689 61.3489ZM365.275 65.0753C366.032 65.7046 366.787 66.338 367.537 66.9756L368.832 65.4512C368.076 64.8089 367.316 64.1708 366.553 63.5369L365.275 65.0753ZM369.779 68.9004C370.523 69.5459 371.263 70.1956 372 70.8494L373.327 69.3534C372.585 68.6948 371.839 68.0403 371.09 67.3901L369.779 68.9004ZM374.199 72.8223C374.929 73.4838 375.655 74.1494 376.377 74.819L377.737 73.3521C377.009 72.6776 376.278 72.0071 375.543 71.3408L374.199 72.8223ZM378.533 76.8391C379.248 77.5162 379.959 78.1973 380.667 78.8825L382.058 77.4455C381.345 76.7553 380.629 76.0691 379.909 75.3871L378.533 76.8391ZM382.779 80.9489C383.129 81.2953 383.478 81.6426 383.827 81.9909L385.241 80.5767C384.89 80.2258 384.538 79.8759 384.186 79.5271L382.779 80.9489Z" fill="#E5E5E5"/>
</svg>
